<svg width="569" height="428" viewBox="0 0 569 428" fill="none" xmlns="http://www.w3.org/2000/svg">
<g clip-path="url(#clip0_4_16)">
<path d="M430.178 150.241C428.462 154.306 424.58 156.956 420.246 157.001C420.201 157.001 420.201 157.001 420.201 157.001H291.09L179.043 270.379H148.616L279.081 138.364C281.113 136.355 283.867 135.212 286.621 135.212H394.243L282.151 21.7893H45.4629L160.625 138.364C164.823 142.612 164.823 149.556 160.67 153.804L45.4629 270.379H148.571C144.237 270.379 140.355 273.028 138.639 277.139C136.969 281.205 137.918 285.864 140.987 288.971L144.102 292.122H19.4149C15.0811 292.122 11.1536 289.473 9.48328 285.362C7.81295 281.251 8.76097 276.592 11.8759 273.485L137.827 146.038L11.8759 18.5917C8.76097 15.5311 7.81295 10.8718 9.48328 6.76061C11.1987 2.64943 15.0811 0 19.4149 0H286.576C289.374 0 292.128 1.142 294.16 3.1519L424.715 135.212L427.83 138.364C430.9 141.562 431.848 146.175 430.178 150.241Z" fill="#F7FAFD"/>
<path d="M559.38 420.571C557.664 424.682 553.737 427.332 549.403 427.332H282.152C279.354 427.332 276.599 426.19 274.613 424.18L144.148 292.165L141.033 289.013C137.963 285.907 137.015 281.247 138.685 277.182C140.401 273.071 144.283 270.421 148.617 270.421H277.728L389.775 156.999H420.202C420.247 156.999 420.247 156.999 420.247 156.999L289.781 289.013C287.615 291.115 284.951 292.165 282.152 292.165H174.575L286.667 405.588H523.4L408.194 289.013C406.162 286.958 405.079 284.217 405.079 281.293C405.079 278.37 406.207 275.629 408.194 273.573L523.4 156.999H420.247C424.58 156.953 428.463 154.303 430.179 150.238C431.804 146.173 430.901 141.559 427.831 138.361L424.716 135.209H549.358C553.692 135.209 557.619 137.859 559.335 141.924C561.005 146.036 560.057 150.695 556.987 153.846L431.037 281.293L556.987 408.74C560.057 411.846 561.005 416.506 559.38 420.571Z" fill="#F7FAFD"/>
<path d="M351.895 162.756C352.203 161.533 352.5 160.299 352.82 159.077C352.98 158.437 353.174 157.809 353.38 157.192C353.479 156.801 353.711 156.454 354.035 156.214C354.36 155.972 354.758 155.85 355.162 155.867C356.144 155.867 357.115 156.016 358.085 156.084C358.604 156.153 359.128 156.176 359.651 156.153C360.036 156.129 360.403 155.977 360.69 155.719C361.707 154.576 362.678 153.434 363.626 152.178C363.783 151.954 363.882 151.696 363.917 151.425C363.951 151.155 363.918 150.879 363.82 150.625C363.478 149.482 363.089 148.34 362.758 147.197C362.602 146.757 362.516 146.294 362.507 145.827C362.508 145.481 362.643 145.15 362.883 144.902C364.564 143.591 366.431 142.54 368.423 141.783C368.715 141.66 369.039 141.637 369.345 141.717C369.651 141.797 369.922 141.978 370.114 142.228C370.937 143.177 371.793 144.102 372.593 145.073C372.854 145.441 373.216 145.726 373.636 145.895C374.055 146.063 374.513 146.107 374.957 146.021C376.225 145.815 377.504 145.689 378.772 145.518C379.015 145.494 379.248 145.408 379.448 145.268C379.648 145.127 379.808 144.939 379.914 144.719C380.314 144.01 380.68 143.28 381.057 142.56C381.434 141.841 381.719 141.326 382.074 140.721C382.228 140.416 382.482 140.174 382.795 140.037C383.108 139.899 383.458 139.875 383.787 139.967C385.604 140.424 387.431 140.892 389.236 141.417C389.585 141.512 389.891 141.727 390.1 142.023C390.308 142.318 390.406 142.678 390.378 143.04C390.378 144.034 390.23 145.016 390.161 146.01C390.161 146.467 390.092 146.935 390.092 147.403C390.083 147.703 390.144 148.001 390.271 148.273C390.397 148.545 390.587 148.783 390.823 148.968C391.828 149.768 392.845 150.556 393.827 151.39C394.11 151.647 394.457 151.821 394.832 151.893C395.207 151.966 395.595 151.934 395.952 151.801C397.186 151.412 398.419 151.001 399.653 150.658C400.055 150.479 400.511 150.466 400.923 150.619C401.336 150.773 401.672 151.082 401.858 151.481C402.715 152.92 403.537 154.383 404.337 155.856C404.482 156.052 404.587 156.276 404.644 156.514C404.701 156.752 404.709 156.998 404.668 157.239C404.628 157.48 404.539 157.71 404.407 157.917C404.276 158.122 404.104 158.3 403.902 158.437C403.297 159.009 402.634 159.512 402.006 160.059C401.565 160.463 401.13 160.874 400.704 161.293C400.529 161.47 400.396 161.684 400.315 161.92C400.233 162.155 400.207 162.406 400.236 162.653C400.372 163.978 400.51 165.303 400.681 166.616C400.725 166.974 400.859 167.315 401.071 167.607C401.283 167.898 401.565 168.132 401.892 168.283C402.657 168.65 403.422 169.004 404.176 169.426C404.652 169.654 405.113 169.91 405.559 170.191C405.876 170.365 406.124 170.642 406.262 170.978C406.399 171.312 406.417 171.684 406.312 172.03C405.867 173.676 405.398 175.32 404.93 176.954C404.846 177.205 404.735 177.446 404.599 177.673C404.476 177.939 404.274 178.16 404.02 178.308C403.767 178.455 403.474 178.52 403.183 178.496L399.687 178.21H399.425C398.934 178.121 398.428 178.183 397.974 178.386C397.519 178.59 397.137 178.927 396.878 179.352C396.295 180.175 395.621 180.929 394.992 181.717C394.696 182.062 394.5 182.482 394.425 182.932C394.351 183.381 394.4 183.842 394.57 184.264C394.947 185.407 395.313 186.446 395.644 187.543C395.745 187.75 395.802 187.976 395.811 188.205C395.821 188.436 395.782 188.665 395.699 188.88C395.615 189.095 395.488 189.289 395.325 189.452C395.163 189.615 394.967 189.743 394.753 189.827C393.267 190.707 391.749 191.552 390.184 192.363C389.846 192.585 389.436 192.67 389.038 192.602C388.64 192.534 388.282 192.318 388.036 191.998C387.362 191.277 386.723 190.512 386.083 189.713C384.701 188.091 384.381 187.965 382.268 188.251L379.8 188.605C379.405 188.643 379.027 188.783 378.703 189.011C378.378 189.239 378.119 189.548 377.95 189.907C377.516 190.787 377.105 191.677 376.648 192.545C376.404 192.991 376.117 193.412 375.791 193.802C375.655 194.005 375.457 194.159 375.226 194.241C374.997 194.324 374.745 194.33 374.512 194.259L369.337 192.82C369.102 192.737 368.876 192.63 368.663 192.5C368.393 192.382 368.167 192.181 368.018 191.926C367.868 191.673 367.802 191.377 367.829 191.084C367.921 189.941 368.012 188.799 368.093 187.657C368.093 187.314 368.093 186.96 368.093 186.606C368.101 186.32 368.042 186.035 367.918 185.778C367.795 185.519 367.612 185.294 367.384 185.121C366.401 184.367 365.431 183.602 364.46 182.836C364.183 182.606 363.849 182.454 363.493 182.398C363.137 182.342 362.773 182.383 362.438 182.517C361.353 182.893 360.256 183.225 359.16 183.579H359.034C357.595 183.967 357.103 183.818 356.349 182.528C355.595 181.238 354.739 179.627 353.997 178.142C353.878 177.975 353.794 177.785 353.752 177.585C353.708 177.385 353.707 177.178 353.746 176.977C353.785 176.776 353.866 176.585 353.981 176.416C354.097 176.248 354.246 176.104 354.419 175.994C355.241 175.24 356.098 174.509 356.989 173.824C357.43 173.53 357.774 173.11 357.978 172.621C358.181 172.131 358.235 171.591 358.131 171.071C357.949 169.929 357.823 168.695 357.652 167.507C357.622 167.266 357.534 167.036 357.394 166.836C357.255 166.637 357.069 166.475 356.852 166.365C355.801 165.817 354.751 165.279 353.711 164.72C352.982 164.441 352.379 163.91 352.009 163.224L351.895 162.756ZM390.355 166.182C390.23 164.688 389.811 163.234 389.12 161.904C388.43 160.573 387.483 159.393 386.334 158.43C385.184 157.468 383.855 156.743 382.424 156.297C380.994 155.851 379.488 155.693 377.996 155.833C375.044 156.176 372.34 157.646 370.447 159.936C368.554 162.227 367.62 165.161 367.841 168.124C368.109 171.096 369.537 173.842 371.817 175.767C374.097 177.691 377.043 178.639 380.017 178.405C381.504 178.291 382.954 177.883 384.281 177.202C385.608 176.521 386.786 175.583 387.745 174.442C388.705 173.3 389.427 171.978 389.869 170.554C390.312 169.13 390.465 167.632 390.32 166.148L390.355 166.182Z" fill="white"/>
<path d="M374.74 194.853C374.573 194.853 374.409 194.83 374.249 194.785L373.038 194.453L369.062 193.311C368.826 193.226 368.598 193.124 368.377 193.003C367.986 192.837 367.657 192.553 367.436 192.19C367.215 191.828 367.113 191.404 367.144 190.981L367.269 189.462L367.407 187.543C367.424 187.212 367.424 186.88 367.407 186.549C367.419 186.348 367.381 186.147 367.297 185.964C367.214 185.781 367.086 185.62 366.926 185.498C365.979 184.778 365.053 184.036 364.117 183.304L363.992 183.202C363.788 183.031 363.543 182.919 363.281 182.879C363.019 182.839 362.751 182.871 362.506 182.974C361.752 183.236 360.987 183.476 360.221 183.728L359.205 184.047H359.056C357.343 184.515 356.601 184.218 355.733 182.734C354.865 181.249 353.973 179.546 353.357 178.324C353.058 177.875 352.948 177.326 353.051 176.796C353.153 176.266 353.46 175.797 353.905 175.492C354.876 174.612 355.709 173.916 356.509 173.287C356.864 173.05 357.139 172.712 357.3 172.317C357.461 171.923 357.499 171.488 357.412 171.071C357.298 170.34 357.195 169.586 357.103 168.786L356.932 167.45C356.919 167.293 356.866 167.14 356.778 167.008C356.69 166.877 356.57 166.769 356.43 166.696L355.173 166.045C354.544 165.714 353.905 165.394 353.276 165.051C352.432 164.717 351.739 164.088 351.323 163.281C351.311 163.221 351.311 163.159 351.323 163.098V162.664C351.312 162.604 351.312 162.541 351.323 162.481L351.552 161.533L352.237 158.792C352.408 158.152 352.603 157.512 352.808 156.873C352.938 156.37 353.235 155.926 353.65 155.615C354.065 155.304 354.574 155.143 355.093 155.159C355.755 155.159 356.406 155.227 357.058 155.297L358.04 155.376H358.451C358.804 155.41 359.16 155.41 359.513 155.376C359.756 155.36 359.989 155.276 360.188 155.137C361.261 153.915 362.267 152.669 363.089 151.618C363.193 151.468 363.257 151.294 363.275 151.112C363.293 150.93 363.264 150.747 363.192 150.579C363.043 150.076 362.883 149.574 362.712 149.06C362.54 148.546 362.312 147.792 362.129 147.152C361.957 146.659 361.864 146.143 361.855 145.621C361.852 145.363 361.905 145.107 362.01 144.87C362.114 144.634 362.267 144.423 362.46 144.25C364.184 142.888 366.111 141.805 368.172 141.041C368.569 140.885 369.005 140.861 369.416 140.972C369.827 141.083 370.192 141.324 370.456 141.658L371.325 142.64C371.873 143.257 372.466 143.863 372.947 144.502C373.143 144.794 373.421 145.021 373.746 145.155C374.072 145.29 374.429 145.325 374.774 145.256C375.608 145.119 376.431 145.016 377.264 144.913L378.613 144.742C378.758 144.722 378.896 144.666 379.014 144.577C379.132 144.49 379.225 144.373 379.286 144.239L379.971 142.937L380.611 141.795C380.885 141.281 381.16 140.755 381.468 140.264C381.679 139.862 382.019 139.542 382.433 139.356C382.847 139.17 383.312 139.128 383.753 139.236C385.957 139.795 387.636 140.241 389.212 140.698C389.676 140.834 390.079 141.125 390.356 141.522C390.632 141.919 390.764 142.398 390.731 142.88C390.731 143.553 390.663 144.228 390.595 144.879C390.595 145.21 390.537 145.542 390.503 145.873C390.469 146.204 390.446 146.775 390.446 147.232C390.432 147.45 390.471 147.668 390.561 147.867C390.65 148.066 390.788 148.241 390.96 148.374L391.669 148.934C392.445 149.551 393.222 150.168 393.953 150.807C394.164 151 394.424 151.13 394.705 151.182C394.985 151.235 395.275 151.208 395.541 151.104L397.346 150.533L399.242 149.928C399.776 149.725 400.367 149.73 400.897 149.941C401.428 150.153 401.86 150.556 402.108 151.07C402.976 152.532 403.811 154.005 404.599 155.456C404.953 155.964 405.095 156.591 404.992 157.202C404.89 157.812 404.552 158.359 404.051 158.723C403.685 159.066 403.308 159.385 402.908 159.706L402.132 160.368C401.697 160.745 401.275 161.156 400.864 161.51C400.744 161.626 400.653 161.767 400.597 161.924C400.542 162.08 400.523 162.248 400.544 162.413L400.624 163.143C400.738 164.217 400.864 165.292 401.001 166.354C401.028 166.619 401.126 166.873 401.282 167.089C401.438 167.305 401.648 167.477 401.892 167.587L402.874 168.055L404.187 168.683C404.633 168.912 405.136 169.175 405.615 169.483C406.038 169.718 406.368 170.092 406.549 170.541C406.73 170.99 406.751 171.487 406.609 171.951C406.168 173.595 405.711 175.241 405.239 176.885C405.148 177.152 405.03 177.409 404.884 177.651C404.706 178.021 404.419 178.328 404.062 178.532C403.706 178.736 403.295 178.827 402.886 178.793L399.39 178.507C399.291 178.516 399.192 178.516 399.093 178.507C398.707 178.438 398.308 178.489 397.95 178.652C397.594 178.815 397.295 179.084 397.094 179.421C396.671 180.015 396.214 180.563 395.757 181.111L395.187 181.808C394.951 182.078 394.796 182.408 394.738 182.761C394.679 183.114 394.72 183.476 394.855 183.807C395.278 185.029 395.632 186.092 395.941 187.12C396.065 187.389 396.135 187.681 396.145 187.978C396.154 188.274 396.104 188.57 395.998 188.847C395.892 189.124 395.73 189.377 395.524 189.59C395.318 189.804 395.071 189.973 394.798 190.09C393.416 190.901 391.931 191.735 390.229 192.637C389.784 192.923 389.248 193.032 388.726 192.944C388.204 192.855 387.734 192.574 387.408 192.158C386.848 191.563 386.322 190.947 385.797 190.319L385.432 189.895C384.175 188.411 384.038 188.365 382.131 188.628L379.652 188.982C379.349 189.008 379.058 189.114 378.81 189.288C378.561 189.463 378.363 189.7 378.235 189.976L377.824 190.833C377.542 191.434 377.245 192.028 376.933 192.614C376.678 193.099 376.371 193.555 376.019 193.974C375.888 194.209 375.705 194.411 375.482 194.563C375.261 194.716 375.006 194.815 374.74 194.853ZM363.123 181.763C363.702 181.768 364.261 181.97 364.711 182.334L364.836 182.436C365.761 183.168 366.698 183.91 367.635 184.63C367.929 184.854 368.166 185.145 368.327 185.479C368.488 185.812 368.568 186.178 368.561 186.549C368.561 186.915 368.561 187.291 368.561 187.691C368.561 188.33 368.469 188.982 368.412 189.622L368.297 191.141C368.282 191.324 368.326 191.507 368.422 191.664C368.519 191.819 368.663 191.941 368.834 192.009H368.937C369.083 192.096 369.235 192.168 369.394 192.226L373.358 193.368L374.557 193.699C374.684 193.737 374.82 193.731 374.944 193.684C375.068 193.637 375.173 193.55 375.242 193.437C375.544 193.082 375.812 192.7 376.042 192.295C376.339 191.723 376.624 191.152 376.91 190.558L377.333 189.679C377.544 189.237 377.864 188.857 378.265 188.575C378.665 188.293 379.131 188.118 379.617 188.068L382.085 187.714C384.369 187.394 384.906 187.6 386.414 189.37L386.779 189.804C387.294 190.409 387.808 191.015 388.355 191.587C388.432 191.701 388.53 191.8 388.644 191.876C388.759 191.953 388.889 192.004 389.024 192.029C389.16 192.054 389.3 192.051 389.434 192.019C389.569 191.988 389.695 191.93 389.806 191.849C391.485 190.958 392.97 190.124 394.375 189.325C395.175 188.856 395.278 188.582 395.003 187.657C394.73 186.732 394.353 185.612 393.941 184.401C393.739 183.887 393.679 183.328 393.77 182.782C393.86 182.237 394.098 181.727 394.456 181.306L395.038 180.598C395.484 180.072 395.929 179.535 396.317 178.975C396.638 178.465 397.104 178.061 397.656 177.815C398.207 177.569 398.818 177.492 399.413 177.594H399.653L403.079 177.867C403.266 177.891 403.454 177.851 403.614 177.754C403.774 177.656 403.896 177.507 403.959 177.331C404.078 177.149 404.174 176.954 404.244 176.748C404.713 175.103 405.17 173.47 405.615 171.825C405.695 171.597 405.688 171.347 405.596 171.124C405.503 170.9 405.331 170.719 405.113 170.614C404.686 170.345 404.244 170.101 403.787 169.883L402.497 169.255L401.515 168.786C401.098 168.597 400.738 168.303 400.47 167.933C400.201 167.562 400.034 167.128 399.984 166.673C399.836 165.6 399.721 164.514 399.607 163.429L399.528 162.71C399.486 162.377 399.522 162.038 399.633 161.721C399.744 161.404 399.927 161.117 400.167 160.882C400.589 160.448 401.035 160.025 401.492 159.626L402.291 158.941C402.657 158.643 403.022 158.335 403.365 158.003C404.085 157.33 404.154 156.964 403.697 156.119C402.908 154.68 402.086 153.218 401.229 151.755C401.167 151.615 401.078 151.488 400.967 151.383C400.855 151.278 400.723 151.196 400.579 151.142C400.436 151.089 400.282 151.065 400.129 151.072C399.976 151.079 399.825 151.118 399.687 151.184L397.803 151.79L395.975 152.372C395.525 152.53 395.04 152.565 394.572 152.472C394.104 152.38 393.67 152.164 393.313 151.847C392.57 151.218 391.805 150.613 391.029 150.008L390.32 149.436C390.015 149.199 389.771 148.894 389.606 148.545C389.441 148.196 389.362 147.812 389.372 147.426C389.372 146.946 389.372 146.467 389.441 145.987C389.509 145.507 389.498 145.302 389.533 144.97C389.533 144.307 389.647 143.691 389.658 143.052C389.683 142.823 389.628 142.592 389.503 142.399C389.378 142.205 389.191 142.061 388.973 141.989C387.408 141.532 385.729 141.087 383.547 140.538C383.336 140.478 383.11 140.495 382.91 140.587C382.711 140.679 382.552 140.841 382.461 141.041C382.176 141.52 381.902 142.023 381.639 142.526L381.011 143.668C380.782 144.113 380.543 144.548 380.303 144.993C380.156 145.282 379.942 145.531 379.677 145.718C379.412 145.905 379.105 146.025 378.784 146.067L377.424 146.238C376.613 146.341 375.791 146.443 374.98 146.57C374.438 146.674 373.877 146.622 373.363 146.419C372.849 146.217 372.404 145.873 372.079 145.427C371.576 144.81 371.039 144.205 370.502 143.611C370.205 143.28 369.908 142.949 369.622 142.606C369.503 142.442 369.332 142.324 369.136 142.272C368.941 142.22 368.733 142.237 368.549 142.32C366.618 143.073 364.812 144.113 363.192 145.404C363.096 145.546 363.045 145.713 363.043 145.884C363.06 146.292 363.137 146.697 363.271 147.083C363.454 147.708 363.649 148.336 363.854 148.968L364.334 150.499C364.454 150.844 364.49 151.212 364.438 151.575C364.387 151.936 364.249 152.28 364.036 152.578C363.192 153.64 362.186 154.862 361.089 156.141C360.705 156.51 360.205 156.732 359.673 156.77C359.244 156.81 358.812 156.81 358.383 156.77H358.006L357.001 156.679C356.372 156.679 355.744 156.564 355.116 156.553C354.836 156.544 354.561 156.631 354.336 156.799C354.112 156.967 353.952 157.207 353.882 157.478C353.688 158.095 353.494 158.712 353.334 159.328C353.094 160.242 352.877 161.145 352.648 162.047L352.443 162.915V163.156C352.775 163.673 353.263 164.073 353.837 164.297L355.733 165.292L356.989 165.942C357.299 166.095 357.565 166.321 357.765 166.603C357.964 166.884 358.09 167.211 358.131 167.553L358.302 168.912C358.405 169.643 358.497 170.375 358.611 171.105C358.728 171.724 358.664 172.364 358.427 172.947C358.19 173.53 357.79 174.033 357.274 174.395C356.498 175.001 355.687 175.686 354.739 176.554C354.156 177.08 354.099 177.342 354.441 178.016C355.059 179.159 355.881 180.803 356.795 182.368C357.388 183.408 357.606 183.511 358.828 183.157L359.97 182.791L362.255 182.06C362.537 181.913 362.842 181.812 363.157 181.763H363.123ZM378.989 178.999C376.025 178.987 373.171 177.867 370.99 175.859C368.809 173.852 367.457 171.1 367.201 168.147C367.065 166.592 367.24 165.025 367.717 163.538C368.194 162.051 368.961 160.675 369.976 159.488C371.471 157.669 373.477 156.339 375.735 155.669C377.992 154.999 380.398 155.02 382.644 155.729C384.89 156.438 386.871 157.802 388.335 159.646C389.799 161.491 390.678 163.731 390.858 166.079C391.027 167.577 390.895 169.094 390.47 170.539C390.044 171.985 389.333 173.331 388.379 174.498C387.364 175.779 386.095 176.835 384.652 177.602C383.21 178.368 381.624 178.829 379.995 178.953C379.672 178.983 379.347 178.999 379.024 178.999H378.989ZM378.909 156.336H377.973C375.185 156.649 372.629 158.033 370.845 160.196C369.474 161.811 368.614 163.796 368.373 165.901C368.131 168.005 368.52 170.133 369.488 172.017C370.456 173.9 371.962 175.454 373.814 176.481C375.666 177.508 377.781 177.963 379.892 177.788C381.367 177.673 382.803 177.256 384.109 176.562C385.416 175.869 386.566 174.913 387.487 173.755C388.353 172.711 389.001 171.504 389.394 170.205C389.786 168.907 389.915 167.542 389.772 166.193C389.557 163.482 388.319 160.954 386.308 159.123C384.296 157.292 381.663 156.295 378.943 156.336H378.909Z" fill="#DFE2EB"/>
<path d="M216.032 99.0061C216.032 99.0061 187.773 97.6009 182.061 116.243V153.56C182.061 153.56 204.027 136.267 216.032 142.035V99.0061Z" fill="#DFE2EB"/>
<path d="M182.063 154.131C181.979 154.147 181.894 154.147 181.811 154.131C181.715 154.085 181.634 154.012 181.578 153.921C181.521 153.829 181.491 153.725 181.491 153.617V116.243C181.486 116.19 181.486 116.136 181.491 116.083C187.271 97.2355 215.76 98.4119 216.045 98.4344C216.193 98.4408 216.332 98.5034 216.434 98.6102C216.536 98.7162 216.593 98.8584 216.593 99.0061V142.035C216.594 142.134 216.569 142.231 216.521 142.317C216.473 142.403 216.403 142.475 216.32 142.526C216.236 142.575 216.141 142.599 216.045 142.599C215.949 142.599 215.855 142.575 215.771 142.526C204.222 136.952 182.645 153.812 182.393 153.949C182.311 154.049 182.192 154.115 182.063 154.131ZM182.634 116.334V152.407C186.906 149.22 204.474 136.884 215.474 141.167V99.5538C211.567 99.4743 187.774 99.8172 182.634 116.334Z" fill="#021B51"/>
<path d="M245.218 296.893C241.346 298.172 237.416 299.303 233.635 300.788C227.33 303.267 222.213 301.553 218.786 296.07C213.417 287.583 205.958 281.667 197.654 276.241C185.466 268.244 177.093 256.959 173.781 242.703C167.041 213.998 183.764 189.656 213.315 182.848C256.915 172.831 283.519 212.547 271.57 250.243C268.338 260.443 265.311 270.335 266.11 281.175C266.555 287.206 263.266 291.079 257.383 292.815C253.294 294.06 249.273 295.534 245.218 296.893Z" fill="white"/>
<path d="M228.289 302.478C224.257 302.478 220.865 300.422 218.317 296.378C212.606 287.411 204.541 281.414 197.345 276.72C185.183 269.018 176.526 256.854 173.232 242.84C170.045 229.235 171.93 216.317 178.68 205.476C185.82 194.053 198.099 185.772 213.2 182.3C232.322 177.902 249.433 182.608 261.381 195.561C274.3 209.555 278.412 230.595 272.13 250.459C269.057 260.169 265.882 270.209 266.693 281.175C267.137 287.286 263.985 291.455 257.554 293.408C254.756 294.231 251.934 295.202 249.204 296.138L245.389 297.429L241.848 298.571C239.198 299.417 236.456 300.296 233.852 301.324C232.086 302.052 230.199 302.443 228.289 302.478ZM226.793 181.832C222.3 181.853 217.825 182.382 213.451 183.408C198.601 186.834 186.631 194.831 179.651 206.082C173.06 216.66 171.221 229.281 174.34 242.577C177.607 256.49 185.557 267.707 197.973 275.76C205.273 280.524 213.508 286.624 219.277 295.773C222.646 301.107 227.399 302.627 233.418 300.262C236.08 299.223 238.832 298.343 241.506 297.486L245.035 296.344L248.839 295.053C251.569 294.116 254.402 293.134 257.234 292.312C263.083 290.587 265.95 286.772 265.55 281.266C264.716 270.072 267.937 259.928 271.033 250.117C277.202 230.698 273.18 210.034 260.547 196.338C256.27 191.667 251.048 187.959 245.229 185.457C239.41 182.957 233.126 181.721 226.793 181.832Z" fill="#021B51"/>
<path d="M260.749 291.773L229.512 302.201C226.718 303.134 225.208 306.156 226.141 308.95L226.683 310.575C227.616 313.37 230.638 314.879 233.432 313.946L264.67 303.519C267.464 302.586 268.973 299.564 268.04 296.769L267.498 295.144C266.565 292.35 263.543 290.84 260.749 291.773Z" fill="white"/>
<path d="M231.763 314.781C230.524 314.785 229.315 314.398 228.309 313.673C227.304 312.949 226.554 311.925 226.165 310.748L225.617 309.115C225.125 307.628 225.242 306.008 225.942 304.608C226.642 303.208 227.868 302.142 229.352 301.644L260.582 291.215C262.07 290.723 263.692 290.839 265.094 291.539C266.496 292.239 267.564 293.466 268.064 294.951L268.601 296.573C269.097 298.06 268.982 299.684 268.281 301.086C267.581 302.489 266.352 303.557 264.866 304.054L233.636 314.46C233.033 314.668 232.4 314.776 231.763 314.781ZM262.455 292.061C261.944 292.061 261.435 292.143 260.947 292.301L229.672 302.729C228.485 303.14 227.507 304.003 226.951 305.129C226.395 306.256 226.306 307.557 226.702 308.749L227.251 310.371C227.445 310.966 227.757 311.516 228.166 311.989C228.577 312.462 229.077 312.848 229.638 313.124C230.198 313.406 230.808 313.575 231.434 313.62C232.059 313.665 232.687 313.586 233.282 313.387L264.512 302.958C265.105 302.759 265.654 302.446 266.126 302.035C266.598 301.624 266.984 301.125 267.263 300.564C267.542 300.005 267.708 299.395 267.751 298.771C267.794 298.147 267.715 297.52 267.516 296.927L266.979 295.305C266.659 294.359 266.05 293.537 265.238 292.955C264.427 292.374 263.454 292.061 262.455 292.061Z" fill="#021B51"/>
<path d="M264.679 303.528L233.441 313.956C230.647 314.888 229.138 317.91 230.071 320.705L230.613 322.33C231.546 325.124 234.568 326.634 237.362 325.701L268.599 315.273C271.394 314.341 272.903 311.319 271.97 308.525L271.428 306.899C270.495 304.105 267.473 302.595 264.679 303.528Z" fill="white"/>
<path d="M235.681 326.534C234.442 326.528 233.238 326.134 232.234 325.409C231.23 324.684 230.479 323.664 230.084 322.49L229.547 320.869C229.29 320.125 229.186 319.337 229.241 318.552C229.296 317.766 229.509 317 229.867 316.299C230.206 315.599 230.685 314.975 231.275 314.466C231.864 313.958 232.551 313.575 233.293 313.341L264.523 302.912C266.008 302.433 267.622 302.562 269.011 303.27C270.401 303.98 271.453 305.211 271.936 306.693L272.473 308.326C272.722 309.062 272.823 309.838 272.77 310.612C272.718 311.386 272.512 312.142 272.166 312.837C271.82 313.531 271.34 314.15 270.753 314.658C270.167 315.166 269.486 315.553 268.749 315.797L237.52 326.226C236.927 326.424 236.306 326.529 235.681 326.534ZM266.385 303.803C265.868 303.802 265.355 303.887 264.866 304.054L233.636 314.46C232.437 314.865 231.448 315.727 230.884 316.86C230.6 317.417 230.432 318.026 230.389 318.65C230.346 319.274 230.428 319.901 230.632 320.492L231.169 322.114C231.365 322.709 231.677 323.26 232.086 323.733C232.497 324.208 232.996 324.597 233.557 324.877C234.117 325.157 234.728 325.323 235.353 325.367C235.979 325.41 236.606 325.33 237.2 325.129L268.43 314.7C269.024 314.503 269.573 314.191 270.046 313.78C270.519 313.37 270.906 312.87 271.185 312.309C271.465 311.749 271.63 311.139 271.673 310.514C271.715 309.89 271.634 309.263 271.434 308.669L270.897 307.047C270.7 306.454 270.388 305.904 269.978 305.432C269.569 304.96 269.07 304.573 268.51 304.294C267.848 303.97 267.121 303.801 266.385 303.803Z" fill="#021B51"/>
<path d="M269.033 315.112C270.507 319.543 264.464 325.529 255.669 328.487C246.874 331.446 238.433 330.247 236.959 325.826L269.033 315.112Z" fill="#021B51"/>
<path d="M246.337 330.68C245.378 330.687 244.419 330.622 243.47 330.487C239.712 329.949 237.198 328.362 236.411 326.008C236.366 325.863 236.379 325.706 236.448 325.571C236.515 325.434 236.633 325.33 236.776 325.278L268.851 314.574C268.993 314.527 269.148 314.537 269.283 314.604C269.418 314.671 269.521 314.787 269.571 314.928C270.358 317.293 269.319 320.069 266.635 322.753C263.56 325.631 259.874 327.775 255.851 329.024C252.789 330.08 249.577 330.64 246.337 330.68ZM237.724 326.169C238.558 327.813 240.626 328.933 243.63 329.355C247.637 329.693 251.672 329.211 255.488 327.939C259.304 326.666 262.821 324.63 265.824 321.954C267.96 319.806 268.942 317.67 268.622 315.854L237.724 326.169Z" fill="#021B51"/>
<path d="M236 293.969C235.872 293.966 235.748 293.923 235.648 293.844C235.547 293.766 235.474 293.658 235.44 293.535L235.154 292.392C232.869 282.763 230.425 272.871 226.176 263.836C220.025 265.008 213.677 264.616 207.717 262.693C204.231 261.718 201.074 259.82 198.579 257.199C197.317 255.856 196.42 254.213 195.975 252.425C195.528 250.638 195.548 248.765 196.031 246.987C196.553 245.694 197.334 244.523 198.327 243.544C199.319 242.566 200.502 241.802 201.801 241.298C203.101 240.795 204.491 240.563 205.883 240.619C207.276 240.674 208.642 241.014 209.899 241.618C214.011 243.995 218.408 248.792 222.988 255.874C224.386 258.037 225.649 260.284 226.77 262.602C231.82 261.575 236.608 259.531 240.842 256.594C240.751 256.182 240.659 255.783 240.58 255.371L240.374 254.366C238.729 246.576 236.696 236.878 240.066 229.236C240.602 228.003 242.624 223.948 245.857 223.274C246.629 223.129 247.425 223.182 248.171 223.425C248.917 223.668 249.591 224.095 250.129 224.667C251.905 226.413 253.24 228.556 254.025 230.919C254.809 233.283 255.02 235.799 254.641 238.26C253.847 243.123 251.665 247.653 248.359 251.305C246.51 253.446 244.417 255.363 242.122 257.016C244.611 267.484 248.391 277.602 253.373 287.138C253.409 287.206 253.43 287.279 253.437 287.355C253.443 287.431 253.434 287.507 253.411 287.579C253.388 287.651 253.35 287.719 253.3 287.776C253.25 287.834 253.19 287.881 253.122 287.915C252.986 287.98 252.831 287.989 252.689 287.943C252.546 287.896 252.427 287.796 252.357 287.663C247.403 278.18 243.628 268.126 241.116 257.724C236.958 260.543 232.297 262.537 227.387 263.596C231.601 272.631 234 282.478 236.319 292.073L236.616 293.215C236.651 293.361 236.625 293.516 236.546 293.645C236.467 293.773 236.34 293.865 236.193 293.9L236 293.969ZM205.683 241.63C204.51 241.638 203.348 241.863 202.257 242.292C201.091 242.696 200.027 243.351 199.143 244.212C198.258 245.073 197.574 246.118 197.139 247.273C196.72 248.865 196.709 250.537 197.109 252.135C197.508 253.733 198.304 255.204 199.424 256.411C201.769 258.869 204.732 260.652 208.002 261.574C213.676 263.422 219.719 263.837 225.593 262.785C224.525 260.608 223.331 258.495 222.018 256.456C217.54 249.534 213.268 244.863 209.316 242.567C208.206 241.946 206.955 241.623 205.683 241.63ZM246.806 224.302C246.594 224.304 246.385 224.323 246.177 224.359C244.041 224.816 242.202 227.397 241.197 229.671C237.987 236.947 239.974 246.439 241.573 254.081L241.791 255.074C241.791 255.326 241.894 255.566 241.939 255.817C244.01 254.273 245.903 252.503 247.582 250.54C250.746 247.056 252.837 242.732 253.601 238.089C253.951 235.816 253.757 233.493 253.036 231.309C252.316 229.125 251.089 227.143 249.455 225.524C248.758 224.796 247.812 224.359 246.806 224.302Z" fill="#DFE2EB"/>
<path d="M345.43 127.688C345.087 127.688 329.438 172.008 329.438 172.008H371.885L380.772 125.678L345.43 127.688Z" fill="white"/>
<path d="M371.886 172.579H329.485C329.395 172.579 329.307 172.556 329.227 172.515C329.148 172.473 329.079 172.413 329.028 172.339C328.973 172.265 328.937 172.178 328.923 172.087C328.909 171.995 328.917 171.901 328.948 171.813C344.494 127.642 344.86 127.128 345.408 127.128L380.75 125.117C380.836 125.113 380.921 125.129 381.001 125.162C381.079 125.196 381.15 125.247 381.207 125.312C381.262 125.378 381.303 125.455 381.326 125.537C381.349 125.62 381.356 125.707 381.344 125.792L372.457 172.111C372.435 172.245 372.364 172.366 372.259 172.453C372.155 172.539 372.022 172.584 371.886 172.579ZM330.296 171.437H371.418L380.076 126.295L345.808 128.236C344.609 131 336.11 154.931 330.296 171.437Z" fill="#021B51"/>
<path d="M337.937 157.878C337.849 157.88 337.762 157.861 337.683 157.823C337.603 157.785 337.534 157.73 337.48 157.661C337.423 157.585 337.385 157.498 337.369 157.404C337.353 157.31 337.359 157.215 337.388 157.124L342.551 141.635C342.582 141.531 342.643 141.439 342.726 141.37C342.81 141.301 342.912 141.258 343.02 141.246L349.599 140.447C349.693 140.434 349.788 140.444 349.876 140.478C349.964 140.512 350.042 140.569 350.101 140.641C350.164 140.714 350.207 140.802 350.227 140.896C350.247 140.989 350.243 141.087 350.216 141.178L345.429 157.021C345.396 157.134 345.329 157.232 345.237 157.304C345.144 157.376 345.033 157.416 344.915 157.421L337.971 157.878H337.937ZM343.522 142.332L338.736 156.679L344.447 156.313L348.868 141.692L343.522 142.332Z" fill="#DFE2EB"/>
<path d="M367.554 167.667H345.429C345.339 167.669 345.252 167.649 345.172 167.609C345.092 167.57 345.024 167.511 344.972 167.439C344.916 167.369 344.878 167.287 344.862 167.199C344.846 167.111 344.853 167.021 344.88 166.936L355.698 130.703C355.734 130.593 355.803 130.496 355.894 130.425C355.986 130.354 356.096 130.311 356.212 130.303L376.773 128.818C376.861 128.813 376.95 128.829 377.031 128.865C377.113 128.9 377.185 128.955 377.241 129.024C377.302 129.091 377.345 129.172 377.367 129.26C377.389 129.348 377.389 129.439 377.366 129.527L368.137 167.222C368.106 167.351 368.031 167.467 367.925 167.548C367.819 167.629 367.688 167.671 367.554 167.667ZM346.194 166.525H367.109L376.041 129.972L356.68 131.365L346.194 166.525Z" fill="#DFE2EB"/>
<path d="M314.018 153.4C314.018 153.4 318.93 149.276 321.203 147.403C323.476 145.53 325.669 140.39 327.726 140.412C329.781 140.435 326.104 146.546 326.104 146.546C326.104 146.546 333.745 140.687 336.121 140.516C338.497 140.344 339.833 144.353 339.24 145.599C338.646 146.843 332.169 149.882 329.77 152.28C327.371 154.679 319.49 160.048 319.49 160.048" fill="white"/>
<path d="M319.534 160.563C319.41 160.565 319.288 160.526 319.188 160.453C319.088 160.38 319.014 160.277 318.978 160.158C318.942 160.039 318.946 159.911 318.988 159.795C319.031 159.679 319.11 159.579 319.215 159.511C319.294 159.511 327.039 154.155 329.369 151.813C331.098 150.324 332.973 149.015 334.966 147.907C336.323 147.201 337.582 146.321 338.713 145.29C338.801 144.736 338.776 144.17 338.643 143.625C338.51 143.08 338.27 142.567 337.937 142.115C337.774 141.78 337.524 141.496 337.211 141.295C336.899 141.093 336.537 140.982 336.166 140.973C334.544 141.087 329.472 144.571 326.456 146.878C326.354 146.964 326.225 147.01 326.091 147.01C325.957 147.01 325.828 146.964 325.725 146.878C325.626 146.79 325.56 146.669 325.541 146.537C325.522 146.406 325.551 146.271 325.623 146.158C327.004 143.874 328.021 141.349 327.747 140.892C326.788 140.892 325.463 142.732 324.32 144.32C323.53 145.571 322.59 146.722 321.522 147.746C319.237 149.619 314.348 153.744 314.348 153.744L313.606 152.875C313.606 152.875 318.529 148.74 320.791 146.867C321.779 145.911 322.649 144.841 323.384 143.68C324.8 141.658 326.148 139.75 327.667 139.75C327.874 139.743 328.08 139.793 328.26 139.893C328.442 139.994 328.592 140.142 328.696 140.321C329.153 141.167 328.535 142.892 327.793 144.434C330.294 142.64 334.281 139.967 336.029 139.864C336.595 139.854 337.154 139.995 337.646 140.275C338.138 140.554 338.546 140.961 338.827 141.453C339.278 142.063 339.59 142.765 339.74 143.509C339.889 144.253 339.875 145.021 339.695 145.758C339.341 146.49 337.948 147.369 335.515 148.854C333.62 149.932 331.838 151.196 330.192 152.624C327.782 155.034 320.197 160.243 319.912 160.46C319.803 160.54 319.668 160.577 319.534 160.563Z" fill="#021B51"/>
<path d="M317.16 120.56C319.56 118.875 322.142 117.465 324.858 116.357C327.977 115.329 331.929 114.632 331.038 113.307C330.147 111.982 322.745 113.901 322.745 113.901C322.745 113.901 327.063 107.287 329.484 105.974C331.906 104.66 335.378 104.763 333.665 103.506C331.952 102.249 326.812 102.056 324.972 102.981C323.133 103.906 312.784 115.283 312.259 115.888C311.734 116.494 317.16 120.56 317.16 120.56Z" fill="white"/>
<path d="M317.159 121.132C317.035 121.133 316.915 121.093 316.816 121.017C314.531 119.304 311.756 117.042 311.653 116.083C311.64 115.981 311.649 115.877 311.678 115.779C311.707 115.68 311.757 115.59 311.825 115.512C311.927 115.398 322.71 103.495 324.71 102.478C326.708 101.462 332.054 101.622 334.008 103.049C334.224 103.21 334.795 103.632 334.681 104.192C334.567 104.752 333.745 105.106 332.511 105.437C331.554 105.659 330.626 105.992 329.747 106.431C328.204 107.264 325.589 110.737 324.035 112.941C326.697 112.348 330.661 111.697 331.494 112.941C331.606 113.092 331.679 113.267 331.707 113.453C331.735 113.638 331.717 113.827 331.654 114.004C331.312 114.963 329.769 115.455 327.085 116.288C326.4 116.483 325.692 116.688 325.018 116.905C322.362 118.005 319.834 119.392 317.479 121.04C317.383 121.101 317.272 121.132 317.159 121.132ZM312.864 116.072C314.17 117.479 315.617 118.75 317.181 119.864C319.517 118.231 322.031 116.87 324.675 115.809C325.36 115.591 326.08 115.375 326.789 115.18C328.147 114.78 330.432 114.118 330.592 113.661C330.147 113.113 326.56 113.501 322.893 114.449C322.782 114.478 322.665 114.473 322.557 114.434C322.449 114.396 322.355 114.325 322.288 114.233C322.223 114.136 322.188 114.023 322.188 113.907C322.188 113.791 322.223 113.678 322.288 113.581C322.47 113.307 326.708 106.831 329.233 105.471C330.188 104.978 331.195 104.594 332.237 104.329C332.625 104.226 333.127 104.089 333.379 103.975L333.322 103.917C331.745 102.775 326.811 102.627 325.223 103.438C323.635 104.249 314.429 114.312 312.864 116.072Z" fill="#021B51"/>
<path d="M264.181 130.018C264.181 130.018 291.218 133.868 295.308 132.84L311.299 114.906L320.678 121.017C320.678 121.017 315.742 135.752 308.98 144.262C302.218 152.773 257.978 154.612 257.978 154.612L264.181 130.018Z" fill="#0C34FB"/>
<path d="M322.779 286.212C322.779 286.212 319.661 292.951 320.369 295.636C321.078 298.32 333.151 316.139 334.899 314.13C336.647 312.119 334.008 294.711 334.008 294.711L322.779 286.212Z" fill="#021B51"/>
<path d="M334.533 314.86H334.213C330.866 314.072 320.392 297.989 319.82 295.819C319.089 293.009 321.934 286.68 322.264 286.007C322.301 285.93 322.353 285.864 322.419 285.81C322.484 285.757 322.56 285.718 322.642 285.698C322.724 285.676 322.809 285.673 322.892 285.689C322.975 285.705 323.054 285.739 323.121 285.789L334.35 294.242C334.409 294.285 334.459 294.34 334.496 294.403C334.533 294.466 334.558 294.535 334.567 294.608C335.013 297.566 337.149 312.438 335.321 314.541C335.221 314.648 335.099 314.733 334.962 314.788C334.826 314.843 334.68 314.868 334.533 314.86ZM323.007 287.046C322.059 289.239 320.437 293.614 320.917 295.453C321.717 298.48 332.602 313.673 334.51 313.673C335.515 312.53 334.51 302.067 333.459 294.927L323.007 287.046Z" fill="#021B51"/>
<path d="M329.142 272.219L322.779 286.212L334.007 294.665L342.426 278.296L329.142 272.219Z" fill="white"/>
<path d="M334.007 295.236C333.885 295.233 333.765 295.193 333.665 295.122L322.436 286.669C322.332 286.591 322.257 286.479 322.224 286.352C322.191 286.226 322.202 286.092 322.253 285.972L328.616 271.979C328.684 271.842 328.803 271.736 328.947 271.683C329.086 271.625 329.242 271.625 329.381 271.683L342.666 277.759C342.737 277.791 342.8 277.837 342.853 277.894C342.906 277.951 342.947 278.018 342.975 278.091C343.031 278.234 343.031 278.393 342.975 278.536L334.556 294.905C334.519 294.982 334.465 295.049 334.398 295.1C334.329 295.152 334.251 295.187 334.167 295.202L334.007 295.236ZM323.487 286.029L333.767 293.797L341.615 278.559L329.393 272.973L323.487 286.029Z" fill="#021B51"/>
<path d="M295.81 193.185C295.81 193.185 342.768 205.1 351.987 212.604C361.204 220.108 354.123 274.081 342.951 284.019L325.383 274.778C325.383 274.778 334.749 233.428 331.312 230.024C327.873 226.62 289.128 221.628 289.128 221.628L263.792 193.288L295.81 193.185Z" fill="#021B51"/>
<path d="M342.951 284.59C342.86 284.591 342.769 284.567 342.689 284.522L325.121 275.28C325.009 275.223 324.919 275.13 324.865 275.017C324.812 274.904 324.797 274.775 324.824 274.652C328.422 258.787 333.253 232.743 330.912 230.424C328.194 227.739 299.774 223.57 289.059 222.188C288.922 222.175 288.795 222.11 288.705 222.005L263.37 193.666C263.295 193.585 263.246 193.486 263.228 193.378C263.209 193.271 263.223 193.16 263.267 193.06C263.313 192.959 263.386 192.873 263.479 192.812C263.572 192.751 263.681 192.718 263.792 192.717L295.776 192.614H295.924C297.843 193.106 343.111 204.654 352.33 212.147C355.756 214.923 356.625 222.965 356.761 229.224C357.185 248.438 351.278 277.337 343.305 284.431C343.212 284.527 343.085 284.584 342.951 284.59ZM326.034 274.481L342.86 283.345C350.467 276.001 356.053 248.003 355.642 229.281C355.46 220.772 354.031 215.003 351.633 213.05C342.78 205.842 297.798 194.294 295.741 193.757L265.06 193.871L289.414 221.103C294.279 221.731 328.251 226.243 331.677 229.635C332.683 230.629 333.631 234.204 330.158 253.783C328.525 263.207 326.491 272.414 326.034 274.481Z" fill="#021B51"/>
<path d="M291.274 309.218L289.801 322.114L302.251 328.077L305.084 310.28L291.274 309.218Z" fill="white"/>
<path d="M302.252 328.648C302.168 328.664 302.083 328.664 302.001 328.648L289.55 322.686C289.443 322.633 289.356 322.548 289.299 322.444C289.242 322.34 289.218 322.221 289.23 322.103L290.703 309.206C290.709 309.132 290.73 309.06 290.764 308.994C290.799 308.928 290.846 308.87 290.904 308.822C290.962 308.776 291.028 308.741 291.1 308.721C291.171 308.7 291.247 308.694 291.321 308.704L305.131 309.766C305.209 309.772 305.285 309.794 305.354 309.831C305.423 309.869 305.483 309.92 305.53 309.983C305.582 310.044 305.619 310.115 305.638 310.192C305.658 310.27 305.661 310.351 305.645 310.428L302.777 328.168C302.764 328.255 302.731 328.339 302.679 328.41C302.628 328.482 302.56 328.539 302.48 328.58C302.41 328.62 302.332 328.643 302.252 328.648ZM290.407 321.794L301.83 327.255L304.445 310.817L291.8 309.846L290.407 321.794Z" fill="#021B51"/>
<path d="M249.868 205.259C249.868 205.259 292.509 236.466 293.08 251.053C293.651 265.64 288.02 311.731 288.02 311.731L309.448 316.86C309.448 316.86 324.926 255.611 319.729 239.996C314.531 224.381 284.502 191.803 284.502 191.803L249.868 205.259Z" fill="#021B51"/>
<path d="M309.447 317.431H309.31L287.926 312.279C287.79 312.248 287.67 312.169 287.59 312.055C287.51 311.941 287.475 311.8 287.493 311.662C287.493 311.205 293.112 265.434 292.541 251.064C291.993 236.923 249.981 206.025 249.557 205.716C249.477 205.654 249.414 205.571 249.374 205.477C249.334 205.383 249.319 205.281 249.329 205.179C249.345 205.078 249.388 204.983 249.451 204.903C249.516 204.822 249.599 204.761 249.695 204.722L284.317 191.278C284.423 191.233 284.54 191.223 284.653 191.247C284.765 191.272 284.867 191.33 284.945 191.415C286.167 192.752 315.044 224.266 320.253 239.813C325.461 255.359 310.669 314.495 309.972 316.996C309.943 317.115 309.876 317.222 309.782 317.301C309.687 317.378 309.57 317.424 309.447 317.431ZM288.646 311.297L309.024 316.174C310.544 310.062 324.011 254.686 319.145 240.179C314.279 225.672 287.298 195.721 284.328 192.477L251.031 205.408C257.176 209.977 293.112 237.3 293.649 251.03C294.186 264.76 289.251 306.225 288.646 311.297Z" fill="#021B51"/>
<path d="M285.063 375.798C322.666 375.798 353.149 373.575 353.149 370.834C353.149 368.092 322.666 365.869 285.063 365.869C247.46 365.869 216.977 368.092 216.977 370.834C216.977 373.575 247.46 375.798 285.063 375.798Z" fill="#DFE2EB"/>
<path d="M249.503 115.362C247.828 115.152 246.231 114.532 244.853 113.558C242.26 111.661 240.924 108.52 239.77 105.562C238.862 103.554 238.351 101.39 238.262 99.1884C238.343 95.3043 240.924 91.9574 243.574 89.1244C245.562 87.0004 247.824 84.2927 246.875 81.54C246.59 80.9699 246.387 80.362 246.27 79.7353C246.202 78.1704 248.303 77.2566 249.765 77.8505C251.159 78.6144 252.26 79.8198 252.895 81.2774C253.401 80.7475 253.769 80.1022 253.968 79.3974C254.167 78.6926 254.191 77.9497 254.037 77.2337C253.912 76.6511 253.672 76.0229 253.969 75.5203C254.228 75.1768 254.607 74.9442 255.031 74.8692C257.029 74.4265 259.121 74.7738 260.869 75.8383C262.617 76.9028 263.885 78.6021 264.409 80.5804C264.789 79.935 265.026 79.2157 265.104 78.471C265.183 77.7264 265.102 76.9734 264.866 76.2628C268.319 77.4572 271.241 79.8285 273.121 82.9613C275 86.0938 275.718 89.7884 275.147 93.3971C274.787 96.0551 274.092 98.6576 273.079 101.141C272.583 101.979 271.913 102.699 271.114 103.255C265.791 107.698 263.392 113.307 256.197 114.94C254.008 115.476 251.742 115.619 249.503 115.362Z" fill="white"/>
<path d="M251.57 116.071C250.852 116.073 250.134 116.027 249.422 115.934C247.654 115.713 245.97 115.053 244.522 114.015C241.837 112.05 240.444 108.84 239.244 105.722C238.29 103.65 237.755 101.41 237.668 99.1314C237.76 94.9959 240.479 91.535 243.14 88.6908C245.253 86.4062 247.115 83.9964 246.316 81.6886C246.247 81.5063 246.178 81.3345 246.098 81.1634C245.868 80.7105 245.725 80.2183 245.676 79.7126C245.666 79.3101 245.759 78.9119 245.947 78.5558C246.135 78.1999 246.411 77.8981 246.749 77.6794C247.21 77.359 247.742 77.1544 248.298 77.0829C248.855 77.0113 249.421 77.0749 249.948 77.2681C251.232 77.8946 252.278 78.9207 252.929 80.1924C253.457 79.3233 253.633 78.2853 253.42 77.2909L253.352 77.0397C253.234 76.7378 253.178 76.4153 253.189 76.0915C253.198 75.7676 253.273 75.4491 253.409 75.1549C253.743 74.679 254.253 74.3547 254.825 74.2525C255.884 73.9965 256.984 73.9554 258.06 74.132C259.135 74.3087 260.163 74.6992 261.084 75.2806C262.512 76.1297 263.656 77.3815 264.374 78.8787C264.573 78.0469 264.533 77.1762 264.26 76.3657C264.227 76.2644 264.222 76.1555 264.247 76.0516C264.272 75.9477 264.325 75.8529 264.402 75.7779C264.478 75.7029 264.573 75.6509 264.678 75.6275C264.781 75.6042 264.891 75.6107 264.991 75.6461C267.168 76.4219 269.155 77.6509 270.82 79.2519C272.486 80.8527 273.794 82.7887 274.655 84.9327C275.72 87.6155 276.044 90.5353 275.591 93.3859C275.273 96.1258 274.601 98.8134 273.593 101.381C273.097 102.245 272.424 102.992 271.617 103.574L271.479 103.688C269.904 105.061 268.423 106.537 267.048 108.11C264.135 111.308 261.336 114.335 256.322 115.489C254.763 115.855 253.17 116.05 251.57 116.071ZM248.794 78.1934C248.31 78.1929 247.837 78.336 247.435 78.6046C247.253 78.716 247.103 78.8722 246.999 79.0582C246.895 79.2442 246.841 79.4538 246.841 79.6669C246.887 80.0306 247 80.3829 247.172 80.7065C247.252 80.9121 247.343 81.1064 247.412 81.312C248.554 84.5898 245.584 87.7657 243.985 89.4673C241.472 92.1517 238.902 95.4071 238.822 99.1539C238.907 101.283 239.408 103.374 240.296 105.31C241.437 108.395 242.751 111.319 245.184 113.101C246.483 114.023 247.99 114.608 249.571 114.803C251.745 115.053 253.947 114.91 256.071 114.38C260.788 113.307 263.427 110.417 266.213 107.344C267.631 105.718 269.157 104.192 270.782 102.775L270.92 102.661C271.595 102.178 272.167 101.564 272.599 100.856C273.533 98.3822 274.166 95.8054 274.483 93.1795C274.9 90.5296 274.601 87.8163 273.615 85.3214C272.128 81.634 269.259 78.6747 265.62 77.0739C265.786 78.3562 265.512 79.657 264.842 80.7635C264.783 80.8591 264.696 80.9346 264.594 80.9803C264.492 81.0269 264.378 81.0422 264.266 81.0237C264.155 81.0052 264.052 80.9546 263.97 80.8776C263.887 80.8013 263.829 80.7017 263.803 80.5925C263.313 78.7679 262.138 77.2028 260.523 76.2222C258.909 75.2415 256.979 74.9206 255.133 75.3262C254.856 75.3595 254.599 75.4936 254.414 75.7032C254.277 75.9316 254.414 76.3086 254.482 76.7199L254.551 76.994C254.734 77.7992 254.716 78.6372 254.499 79.4339C254.281 80.2307 253.872 80.9619 253.306 81.5633C253.248 81.6308 253.173 81.6822 253.089 81.7127C253.005 81.7424 252.914 81.7496 252.826 81.7344C252.737 81.7263 252.651 81.6974 252.576 81.65C252.5 81.6027 252.438 81.5376 252.392 81.4605C251.822 80.1187 250.821 79.0054 249.548 78.2961C249.305 78.2153 249.05 78.1804 248.794 78.1934Z" fill="#021B51"/>
<path d="M274.025 103.952C274.025 103.952 278.012 111.297 276.938 112.656C275.865 114.015 272.791 112.782 272.791 112.782" fill="white"/>
<path d="M275.249 113.866C274.334 113.834 273.431 113.649 272.576 113.319C272.437 113.26 272.327 113.149 272.269 113.01C272.212 112.872 272.211 112.716 272.268 112.576C272.294 112.506 272.334 112.444 272.386 112.39C272.436 112.336 272.498 112.293 272.567 112.263C272.634 112.233 272.708 112.217 272.782 112.216C272.856 112.215 272.93 112.228 272.999 112.256C273.696 112.53 275.832 113.136 276.494 112.256C276.94 111.685 275.558 107.915 273.525 104.181C273.487 104.115 273.463 104.042 273.453 103.967C273.444 103.892 273.451 103.815 273.472 103.743C273.494 103.671 273.529 103.603 273.578 103.545C273.626 103.486 273.685 103.438 273.753 103.403C273.887 103.333 274.042 103.318 274.187 103.361C274.332 103.403 274.455 103.501 274.529 103.632C275.775 105.917 278.573 111.468 277.385 112.965C277.123 113.27 276.794 113.51 276.423 113.667C276.052 113.823 275.651 113.891 275.249 113.866Z" fill="#021B51"/>
<path d="M273.831 94.6876C276.55 97.3262 275.27 102.295 274.974 105.574C274.54 110.189 273.999 114.788 273.352 119.373C272.941 122.285 265.356 121.656 264.099 120.709L263.939 130.441C263.939 130.441 261.655 135.627 255.829 132.28C250.004 128.933 248.896 124.844 248.896 124.844L250.552 111.547C250.552 111.547 255.544 112.016 259.016 106.305C262.489 100.594 263.163 91.4555 263.163 91.4555C263.163 91.4555 271.181 92.1059 273.831 94.6876Z" fill="white"/>
<path d="M259.519 133.982C258.12 133.927 256.758 133.51 255.568 132.771C249.57 129.344 248.394 125.209 248.348 125.038C248.331 124.966 248.331 124.892 248.348 124.821L250.005 111.513C250.027 111.369 250.103 111.238 250.217 111.148C250.331 111.057 250.476 111.012 250.621 111.022C250.816 111.022 255.328 111.364 258.618 106.053C261.976 100.536 262.661 91.5237 262.673 91.4322C262.678 91.3567 262.698 91.2837 262.733 91.217C262.767 91.1496 262.814 91.0901 262.871 91.0411C262.929 90.9922 262.996 90.9552 263.067 90.9319C263.139 90.9095 263.214 90.9006 263.289 90.907C263.62 90.907 271.536 91.5808 274.312 94.3335C276.779 96.7208 276.243 100.708 275.82 103.917C275.74 104.534 275.66 105.139 275.603 105.688C275.18 110.257 274.632 114.94 273.992 119.509C273.898 119.995 273.671 120.445 273.336 120.81C273.001 121.175 272.572 121.44 272.096 121.577C269.699 122.312 267.139 122.336 264.728 121.645L264.614 130.509C264.625 130.581 264.625 130.654 264.614 130.726C263.948 132.135 262.76 133.228 261.302 133.776C260.723 133.943 260.121 134.013 259.519 133.982ZM249.479 124.844C249.696 125.46 251.067 128.899 256.139 131.789C256.811 132.253 257.574 132.568 258.377 132.716C259.181 132.864 260.006 132.84 260.799 132.645C261.914 132.228 262.837 131.414 263.392 130.361L263.518 120.754C263.522 120.648 263.555 120.545 263.613 120.457C263.672 120.368 263.753 120.297 263.849 120.252C263.938 120.196 264.041 120.166 264.146 120.166C264.251 120.166 264.354 120.196 264.443 120.252C265.128 120.8 269.309 121.394 271.593 120.458C272.313 120.172 272.736 119.772 272.736 119.315C273.375 114.746 273.878 110.177 274.346 105.539C274.346 104.98 274.483 104.397 274.564 103.734C274.951 100.776 275.443 97.1094 273.421 95.11C271.399 93.1113 265.505 92.3227 263.666 92.1172C263.461 94.2532 262.524 101.679 259.497 106.67C256.47 111.661 252.506 112.142 251.044 112.187L249.479 124.844Z" fill="#021B51"/>
<path d="M273.525 115.923C273.525 115.923 269.767 117.819 268.178 113.958L273.525 115.923Z" fill="white"/>
<path d="M271.479 116.962C270.993 116.964 270.508 116.879 270.052 116.711C269.495 116.48 268.992 116.135 268.577 115.698C268.162 115.261 267.843 114.743 267.642 114.175C267.585 114.032 267.587 113.873 267.647 113.732C267.707 113.591 267.819 113.479 267.961 113.421C268.031 113.393 268.106 113.379 268.181 113.38C268.256 113.381 268.33 113.397 268.399 113.426C268.468 113.456 268.531 113.499 268.583 113.553C268.635 113.607 268.676 113.671 268.704 113.74C268.846 114.161 269.075 114.547 269.376 114.874C269.677 115.201 270.044 115.46 270.451 115.637C271.388 115.909 272.392 115.828 273.273 115.408C273.341 115.375 273.414 115.356 273.488 115.351C273.564 115.346 273.639 115.356 273.71 115.381C273.782 115.405 273.847 115.444 273.903 115.493C273.96 115.543 274.006 115.603 274.038 115.671C274.103 115.807 274.113 115.961 274.067 116.104C274.019 116.247 273.92 116.365 273.787 116.436C273.063 116.771 272.277 116.95 271.479 116.962Z" fill="#021B51"/>
<path d="M264.922 106.146C264.89 104.978 264.533 103.843 263.893 102.867C263.515 102.036 263.014 101.266 262.409 100.582C262.1 100.253 261.724 99.9962 261.305 99.8284C260.887 99.6606 260.437 99.5867 259.987 99.6116C259.591 99.6734 259.213 99.8204 258.878 100.041C258.543 100.261 258.259 100.551 258.045 100.891C257.615 101.581 257.352 102.364 257.28 103.175C257.057 104.899 257.29 106.65 257.958 108.253C258.626 109.858 259.704 111.258 261.084 112.313L260.856 112.016" fill="white"/>
<path d="M261.084 112.918C260.964 112.921 260.847 112.88 260.754 112.804C259.291 111.68 258.147 110.192 257.438 108.488C256.728 106.785 256.478 104.925 256.71 103.095C256.811 102.214 257.107 101.367 257.578 100.616C257.832 100.217 258.167 99.875 258.56 99.6116C258.953 99.3482 259.397 99.1691 259.862 99.0856C260.399 99.043 260.939 99.1234 261.44 99.3217C261.941 99.5192 262.39 99.8292 262.752 100.227C263.403 100.932 263.939 101.733 264.341 102.604C265.034 103.672 265.41 104.916 265.425 106.191C265.409 106.338 265.336 106.473 265.225 106.57C265.112 106.668 264.969 106.72 264.82 106.716C264.745 106.712 264.672 106.692 264.606 106.66C264.538 106.627 264.479 106.58 264.43 106.524C264.381 106.468 264.344 106.402 264.321 106.331C264.297 106.26 264.288 106.185 264.295 106.11C264.256 105.05 263.925 104.022 263.335 103.141C262.979 102.374 262.509 101.666 261.941 101.039C261.7 100.765 261.4 100.55 261.064 100.41C260.727 100.269 260.363 100.207 260 100.227C259.687 100.283 259.389 100.403 259.126 100.581C258.863 100.757 258.639 100.987 258.469 101.255C258.092 101.862 257.858 102.545 257.783 103.255C257.586 104.846 257.796 106.461 258.396 107.948C258.996 109.435 259.964 110.744 261.211 111.753H261.268L261.508 112.05C261.574 112.135 261.616 112.237 261.627 112.345C261.639 112.452 261.619 112.56 261.571 112.657C261.524 112.754 261.449 112.835 261.357 112.892C261.265 112.948 261.158 112.977 261.051 112.975L261.084 112.918Z" fill="#021B51"/>
<path d="M264.088 120.709C264.088 120.709 260.273 119.144 258.673 116.3C258.673 116.3 258.33 123.348 264.179 125.895L264.088 120.709Z" fill="#021B51"/>
<path d="M264.181 126.466C264.101 126.482 264.02 126.482 263.941 126.466C257.807 123.793 258.104 116.391 258.104 116.311C258.111 116.187 258.158 116.068 258.239 115.974C258.319 115.879 258.428 115.813 258.549 115.786C258.67 115.759 258.795 115.771 258.908 115.82C259.021 115.87 259.115 115.953 259.177 116.059C260.651 118.698 264.272 120.206 264.306 120.217C264.41 120.261 264.5 120.333 264.563 120.427C264.626 120.52 264.66 120.63 264.66 120.743L264.752 125.94C264.752 126.036 264.728 126.13 264.682 126.213C264.635 126.298 264.569 126.368 264.489 126.42C264.394 126.467 264.286 126.483 264.181 126.466ZM259.372 118.162C259.506 119.551 259.957 120.891 260.689 122.079C261.422 123.267 262.417 124.272 263.598 125.015L263.541 121.131C261.985 120.399 260.573 119.393 259.372 118.162Z" fill="#021B51"/>
<path d="M272.237 100.22C272.465 99.3329 272.368 98.5412 272.02 98.4512C271.67 98.3613 271.202 99.0077 270.974 99.895C270.745 100.782 270.843 101.574 271.191 101.664C271.54 101.754 272.009 101.108 272.237 100.22Z" fill="#021B51"/>
<path d="M243.904 121.417C243.904 121.417 260.799 122.206 267.584 131.287C274.369 140.367 279.829 175.104 283.153 177.389C286.477 179.673 295.924 192.535 295.81 193.186C295.695 193.837 247.434 209.178 247.434 209.178C247.434 209.178 244.601 198.04 239.278 183.614C233.955 169.187 229.832 122.399 243.904 121.417Z" fill="#0C34FB"/>
<path d="M287.698 182.551C287.613 182.55 287.529 182.53 287.453 182.492C287.376 182.454 287.307 182.4 287.253 182.334C281.76 175.024 278.002 166.559 276.264 157.582C273.774 143.554 269.114 135.033 269.068 134.953C268.994 134.822 268.976 134.666 269.017 134.52C269.057 134.374 269.154 134.251 269.286 134.177C269.351 134.14 269.424 134.117 269.498 134.109C269.573 134.101 269.649 134.108 269.722 134.129C269.793 134.15 269.86 134.186 269.919 134.233C269.978 134.28 270.026 134.339 270.062 134.405C270.062 134.485 274.86 143.154 277.384 157.376C279.089 166.166 282.769 174.454 288.144 181.615C288.239 181.732 288.284 181.882 288.268 182.031C288.254 182.181 288.18 182.318 288.065 182.415C287.962 182.501 287.832 182.55 287.698 182.551Z" fill="#021B51"/>
<path d="M257.681 135.547C258.069 136.027 277.168 166.491 277.168 166.491L315.148 148.215L324.424 158.906C324.424 158.906 292.418 183.1 279.933 187.201C267.447 191.301 238.811 146.707 239.13 141.807C239.45 136.906 252.198 128.75 257.681 135.547Z" fill="#0C34FB"/>
<path d="M277.168 167.107C277.071 167.108 276.974 167.085 276.888 167.039C276.803 166.992 276.73 166.926 276.676 166.845C276.676 166.845 259.634 139.693 259.371 139.305C259.299 139.177 259.278 139.028 259.312 138.886C259.348 138.743 259.435 138.62 259.559 138.541C259.682 138.462 259.83 138.434 259.974 138.46C260.118 138.487 260.245 138.569 260.33 138.688C260.548 139.019 275.123 162.218 277.328 165.736L297.455 155.216C297.588 155.148 297.743 155.134 297.886 155.179C298.03 155.224 298.149 155.324 298.22 155.456C298.255 155.523 298.278 155.596 298.285 155.672C298.292 155.746 298.284 155.823 298.262 155.895C298.24 155.967 298.203 156.034 298.155 156.092C298.107 156.15 298.047 156.198 297.98 156.233L277.419 166.993C277.346 167.052 277.26 167.091 277.168 167.107Z" fill="#021B51"/>
<path d="M279.086 187.223C271.09 187.223 262.5 180.472 253.43 167.096C253.388 167.035 253.357 166.966 253.341 166.893C253.326 166.82 253.324 166.744 253.339 166.67C253.352 166.597 253.38 166.527 253.422 166.465C253.463 166.403 253.517 166.349 253.579 166.308C253.705 166.223 253.86 166.192 254.009 166.22C254.159 166.247 254.291 166.332 254.379 166.457C264.271 181.054 273.488 187.565 281.793 185.807C290.097 184.047 306.694 170.957 306.855 170.865C306.913 170.818 306.979 170.782 307.052 170.761C307.124 170.74 307.199 170.733 307.274 170.741C307.348 170.75 307.42 170.774 307.486 170.811C307.551 170.847 307.608 170.897 307.654 170.957C307.702 171.015 307.737 171.082 307.759 171.153C307.78 171.226 307.786 171.301 307.778 171.376C307.769 171.451 307.746 171.523 307.709 171.588C307.672 171.654 307.622 171.711 307.563 171.756C306.877 172.305 290.657 185.086 282.021 186.914C281.057 187.123 280.072 187.226 279.086 187.223Z" fill="#021B51"/>
<path d="M264.523 128.979L263.62 131.698L265.848 134.599C265.848 134.599 261.416 157.216 227.73 139.168L216.902 143.121L223.332 151.881C223.332 151.881 263.86 167.473 267.013 134.908L267.584 131.275L264.523 128.979Z" fill="#021B51"/>
<path d="M243.242 156.142C240.667 156.128 238.099 155.926 235.554 155.537C231.32 154.886 227.158 153.83 223.126 152.384C223.022 152.35 222.933 152.282 222.875 152.19L216.444 143.428C216.39 143.358 216.354 143.276 216.338 143.189C216.323 143.101 216.328 143.012 216.353 142.927C216.379 142.843 216.425 142.765 216.486 142.701C216.548 142.638 216.623 142.589 216.707 142.56L227.547 138.666C227.619 138.632 227.696 138.614 227.775 138.614C227.854 138.614 227.933 138.632 228.004 138.666C240.717 145.519 250.666 147.255 257.554 144C259.419 143.079 261.068 141.772 262.39 140.168C263.714 138.564 264.681 136.697 265.23 134.69L263.174 131.994C263.118 131.921 263.079 131.834 263.063 131.743C263.048 131.651 263.054 131.557 263.083 131.469L263.985 128.762C264.014 128.677 264.062 128.6 264.125 128.537C264.189 128.473 264.266 128.425 264.35 128.396C264.437 128.369 264.529 128.362 264.619 128.378C264.708 128.394 264.793 128.432 264.865 128.488L267.915 130.772C267.998 130.832 268.064 130.914 268.104 131.008C268.144 131.103 268.158 131.207 268.143 131.309L267.572 134.941C266.783 143.154 263.528 149.094 257.931 152.566C253.545 155.297 248.211 156.142 243.242 156.142ZM223.685 151.379C225.628 152.087 245.389 159.009 257.326 151.619C262.614 148.351 265.687 142.697 266.464 134.827L266.989 131.504L264.842 129.904L264.282 131.583L266.315 134.245C266.365 134.308 266.4 134.382 266.418 134.462C266.436 134.541 266.436 134.622 266.418 134.702C265.882 136.937 264.856 139.025 263.414 140.815C261.972 142.605 260.15 144.052 258.08 145.05C250.883 148.477 240.671 146.696 227.707 139.819L217.826 143.371L223.685 151.379Z" fill="#021B51"/>
<path d="M289.801 322.115C289.801 322.115 286.763 333.537 287.174 334.531C287.585 335.525 306.318 359.227 308.078 351.893C309.837 344.56 302.252 328.077 302.252 328.077L289.801 322.115Z" fill="#021B51"/>
<path d="M306.557 353.869C301.154 353.869 287.07 335.753 286.647 334.747C286.224 333.742 288.097 326.294 289.251 321.965C289.271 321.884 289.308 321.809 289.361 321.745C289.415 321.682 289.483 321.632 289.56 321.6C289.635 321.566 289.717 321.548 289.8 321.548C289.883 321.548 289.964 321.566 290.04 321.6L302.49 327.562C302.613 327.617 302.711 327.714 302.764 327.837C303.085 328.51 310.406 344.583 308.625 352.018C308.575 352.497 308.36 352.943 308.015 353.279C307.671 353.616 307.219 353.82 306.74 353.857L306.557 353.869ZM290.211 322.925C288.863 328.077 287.607 333.605 287.755 334.348C288.589 335.935 302.605 353.229 306.74 352.727C307.025 352.727 307.379 352.544 307.562 351.756C309.161 345.108 302.685 330.327 301.85 328.499L290.211 322.925Z" fill="#021B51"/>
<path d="M309.952 223.524C309.864 223.525 309.778 223.505 309.701 223.465C309.623 223.426 309.556 223.368 309.506 223.296L293.286 202.678C293.234 202.619 293.196 202.551 293.172 202.477C293.148 202.402 293.139 202.324 293.147 202.246C293.155 202.169 293.178 202.094 293.216 202.026C293.254 201.957 293.305 201.897 293.367 201.85C293.428 201.802 293.499 201.768 293.575 201.749C293.65 201.729 293.729 201.725 293.806 201.738C293.883 201.75 293.956 201.778 294.022 201.82C294.088 201.862 294.145 201.916 294.188 201.981L310.397 222.599C310.491 222.717 310.533 222.868 310.516 223.018C310.499 223.168 310.423 223.304 310.305 223.399C310.205 223.479 310.08 223.523 309.952 223.524Z" fill="white"/>
<path d="M371.885 172.008L372.342 144.662L381.686 100.913L380.772 125.678L371.885 172.008Z" fill="white"/>
<path d="M371.884 172.58H371.827C371.685 172.563 371.553 172.494 371.459 172.387C371.364 172.279 371.313 172.14 371.313 171.997L371.77 144.651L381.125 100.788C381.158 100.65 381.24 100.529 381.356 100.447C381.471 100.365 381.613 100.328 381.754 100.342C381.897 100.359 382.029 100.431 382.122 100.541C382.215 100.651 382.263 100.792 382.256 100.937L381.342 125.701L372.455 172.111C372.434 172.246 372.363 172.367 372.258 172.453C372.153 172.539 372.02 172.584 371.884 172.58ZM380.874 107.471L372.878 144.822L372.547 165.475L380.189 125.61L380.874 107.471Z" fill="#021B51"/>
<path d="M158.715 180.586C158.897 180.05 159.08 179.444 159.274 178.953C159.377 178.679 159.48 178.393 159.605 178.119C159.665 177.945 159.783 177.798 159.939 177.702C160.096 177.606 160.28 177.568 160.462 177.593C160.908 177.593 161.342 177.731 161.776 177.81C162.009 177.857 162.246 177.887 162.484 177.902C162.66 177.899 162.832 177.844 162.975 177.742C163.489 177.263 163.969 176.76 164.449 176.246C164.527 176.15 164.58 176.036 164.606 175.915C164.632 175.794 164.629 175.669 164.597 175.549C164.483 175.024 164.357 174.487 164.243 173.962C164.209 173.75 164.209 173.534 164.243 173.322C164.249 173.244 164.27 173.169 164.305 173.101C164.34 173.032 164.389 172.971 164.449 172.922C165.266 172.412 166.156 172.026 167.087 171.78C167.226 171.736 167.374 171.74 167.511 171.789C167.646 171.839 167.763 171.932 167.841 172.054C168.172 172.51 168.526 172.956 168.846 173.436C168.957 173.608 169.111 173.749 169.294 173.841C169.477 173.933 169.681 173.975 169.886 173.962C170.468 173.962 171.028 173.962 171.633 173.881C171.741 173.876 171.844 173.843 171.936 173.787C172.028 173.732 172.105 173.654 172.159 173.562C172.376 173.253 172.57 172.933 172.776 172.625C172.981 172.316 173.119 172.088 173.301 171.837C173.381 171.7 173.506 171.597 173.654 171.544C173.803 171.492 173.965 171.495 174.112 171.551L176.523 172.419C176.674 172.48 176.801 172.592 176.881 172.735C176.96 172.879 176.987 173.046 176.956 173.207C176.956 173.653 176.819 174.098 176.74 174.544C176.74 174.749 176.74 174.955 176.659 175.172C176.643 175.309 176.659 175.447 176.707 175.576C176.755 175.706 176.833 175.821 176.934 175.914C177.356 176.314 177.791 176.714 178.202 177.125C178.319 177.251 178.468 177.342 178.632 177.39C178.797 177.439 178.972 177.442 179.138 177.399L180.874 176.999C181.064 176.937 181.27 176.951 181.449 177.039C181.628 177.126 181.766 177.28 181.834 177.468C182.165 178.153 182.485 178.85 182.793 179.547C182.849 179.641 182.886 179.746 182.901 179.855C182.915 179.963 182.91 180.073 182.882 180.18C182.854 180.286 182.806 180.386 182.74 180.473C182.674 180.561 182.591 180.634 182.496 180.689C182.199 180.918 181.88 181.123 181.571 181.352C181.263 181.58 181.138 181.683 180.931 181.865C180.843 181.936 180.772 182.027 180.726 182.13C180.681 182.234 180.661 182.346 180.669 182.46C180.669 183.065 180.669 183.671 180.669 184.276C180.675 184.44 180.724 184.6 180.81 184.74C180.896 184.88 181.016 184.996 181.16 185.076C181.48 185.269 181.823 185.464 182.142 185.669C182.351 185.788 182.553 185.918 182.748 186.058C182.885 186.15 182.985 186.288 183.033 186.445C183.081 186.603 183.073 186.773 183.01 186.926C182.748 187.657 182.474 188.388 182.199 189.108C182.153 189.218 182.091 189.322 182.017 189.416C181.952 189.533 181.852 189.627 181.731 189.684C181.611 189.742 181.475 189.76 181.343 189.736L179.767 189.473H179.652C179.442 189.427 179.224 189.442 179.022 189.515C178.82 189.587 178.643 189.716 178.51 189.884C178.213 190.238 177.87 190.559 177.562 190.89C177.413 191.035 177.306 191.218 177.254 191.42C177.202 191.621 177.206 191.832 177.265 192.032C177.391 192.546 177.516 193.049 177.619 193.563C177.722 194.077 177.619 194.339 177.128 194.579C176.42 194.922 175.7 195.242 174.969 195.561C174.808 195.645 174.622 195.665 174.446 195.618C174.271 195.572 174.119 195.462 174.021 195.31C173.736 194.956 173.484 194.579 173.222 194.168C172.65 193.38 172.513 193.3 171.543 193.357H170.4C170.218 193.36 170.042 193.41 169.885 193.503C169.729 193.595 169.599 193.726 169.509 193.882C169.28 194.259 169.052 194.648 168.812 195.025C168.684 195.216 168.538 195.396 168.378 195.561C168.307 195.646 168.212 195.706 168.106 195.735C168 195.764 167.887 195.759 167.784 195.721L165.499 194.864C165.396 194.864 165.306 194.75 165.203 194.693C165.086 194.628 164.992 194.529 164.934 194.408C164.877 194.287 164.859 194.151 164.882 194.02C164.963 193.494 165.054 192.98 165.134 192.466C165.145 192.306 165.145 192.146 165.134 191.987C165.153 191.857 165.139 191.726 165.093 191.603C165.047 191.481 164.971 191.374 164.871 191.289L163.638 190.147C163.521 190.032 163.377 189.949 163.218 189.909C163.059 189.869 162.893 189.872 162.735 189.919L161.136 190.295H161.079C160.405 190.41 160.188 190.295 159.937 189.713C159.685 189.13 159.32 188.331 159.034 187.634C158.987 187.554 158.955 187.465 158.943 187.372C158.931 187.279 158.939 187.185 158.964 187.095C158.99 187.005 159.033 186.922 159.093 186.85C159.152 186.777 159.225 186.717 159.309 186.675C159.72 186.366 160.131 186.058 160.565 185.783C160.774 185.667 160.944 185.49 161.051 185.277C161.159 185.063 161.201 184.822 161.17 184.584C161.17 184.036 161.17 183.442 161.102 182.951C161.099 182.837 161.067 182.725 161.012 182.626C160.956 182.526 160.877 182.442 160.782 182.379C160.325 182.083 159.868 181.808 159.423 181.511C159.103 181.356 158.849 181.093 158.703 180.769L158.715 180.586ZM175.986 183.625C175.986 182.942 175.851 182.267 175.588 181.637C175.326 181.006 174.942 180.435 174.458 179.954C173.974 179.473 173.399 179.093 172.768 178.834C172.136 178.576 171.459 178.445 170.776 178.45C169.426 178.494 168.144 179.058 167.199 180.025C166.255 180.991 165.719 182.285 165.705 183.636C165.658 184.34 165.756 185.046 165.993 185.71C166.231 186.375 166.602 186.984 167.083 187.499C167.565 188.014 168.147 188.424 168.795 188.705C169.442 188.986 170.14 189.131 170.846 189.131C171.551 189.131 172.248 188.986 172.896 188.705C173.543 188.424 174.126 188.014 174.608 187.499C175.089 186.984 175.46 186.375 175.697 185.71C175.934 185.046 176.033 184.34 175.986 183.636V183.625Z" fill="white"/>
<path d="M167.921 196.362C167.784 196.363 167.647 196.336 167.521 196.282L165.237 195.425C165.107 195.374 164.984 195.309 164.871 195.231C164.654 195.105 164.48 194.917 164.372 194.69C164.264 194.465 164.227 194.211 164.266 193.963L164.517 192.41C164.528 192.269 164.528 192.127 164.517 191.986C164.517 191.838 164.517 191.781 164.448 191.747L163.386 190.764L163.203 190.582C163.155 190.532 163.094 190.498 163.027 190.484C162.96 190.47 162.889 190.476 162.826 190.502L161.684 190.764L161.261 190.856C160.244 191.039 159.776 190.856 159.388 189.977C159 189.096 158.76 188.571 158.474 187.863C158.331 187.585 158.298 187.263 158.382 186.962C158.467 186.661 158.663 186.403 158.931 186.241C159.354 185.921 159.776 185.613 160.222 185.327C160.344 185.263 160.443 185.163 160.507 185.041C160.57 184.918 160.594 184.779 160.576 184.642C160.576 184.299 160.576 183.945 160.576 183.602V182.997C160.583 182.979 160.587 182.96 160.587 182.94C160.587 182.921 160.583 182.901 160.576 182.883L159.205 182.015C158.776 181.79 158.443 181.416 158.268 180.964C158.258 180.907 158.258 180.849 158.268 180.793V180.587C158.258 180.527 158.258 180.464 158.268 180.404L158.405 179.993C158.543 179.582 158.68 179.171 158.829 178.771C158.976 178.371 159.045 178.189 159.171 177.903C159.277 177.614 159.478 177.369 159.742 177.209C160.006 177.049 160.316 176.983 160.622 177.023C160.919 177.023 161.216 177.114 161.524 177.172L162.141 177.275H162.563C162.612 177.285 162.663 177.285 162.712 177.275C163.169 176.829 163.648 176.338 164.117 175.835C164.117 175.835 164.117 175.721 164.117 175.641L163.957 174.956C163.888 174.647 163.831 174.35 163.763 174.053C163.705 173.79 163.682 173.522 163.694 173.253C163.708 173.088 163.759 172.928 163.842 172.784C163.925 172.64 164.038 172.515 164.174 172.42C165 171.876 165.9 171.457 166.847 171.174C167.095 171.1 167.36 171.107 167.605 171.193C167.85 171.279 168.06 171.441 168.206 171.654L168.56 172.123C168.789 172.431 169.017 172.739 169.223 173.06C169.272 173.153 169.35 173.228 169.443 173.277C169.537 173.326 169.643 173.346 169.749 173.334C170.136 173.334 170.525 173.334 170.89 173.334H171.507C171.663 173.135 171.807 172.93 171.942 172.717L172.296 172.168C172.444 171.952 172.581 171.734 172.741 171.517C172.892 171.284 173.119 171.11 173.382 171.023C173.646 170.936 173.931 170.941 174.192 171.038C175.003 171.323 175.825 171.609 176.625 171.917C176.892 172.02 177.116 172.21 177.261 172.458C177.407 172.704 177.464 172.993 177.424 173.277C177.424 173.596 177.333 173.905 177.276 174.213L177.208 174.659C177.169 174.851 177.143 175.046 177.127 175.241C177.115 175.29 177.118 175.343 177.134 175.391C177.15 175.44 177.18 175.482 177.219 175.515L177.539 175.824C177.858 176.121 178.19 176.429 178.498 176.749C178.549 176.807 178.617 176.848 178.692 176.869C178.767 176.889 178.847 176.887 178.92 176.863L179.755 176.669L180.645 176.464C180.963 176.376 181.301 176.407 181.597 176.55C181.892 176.693 182.127 176.937 182.256 177.24C182.587 177.937 182.907 178.633 183.205 179.342C183.376 179.647 183.425 180.007 183.339 180.347C183.254 180.687 183.042 180.981 182.748 181.169C182.565 181.318 182.37 181.444 182.176 181.58L181.81 181.844L181.205 182.323C181.179 182.339 181.158 182.363 181.145 182.392C181.133 182.421 181.13 182.452 181.137 182.483V182.872C181.137 183.34 181.137 183.808 181.137 184.276C181.137 184.347 181.156 184.416 181.192 184.476C181.228 184.536 181.281 184.586 181.342 184.619L181.777 184.87L182.348 185.213C182.565 185.35 182.781 185.487 182.987 185.647C183.223 185.812 183.396 186.052 183.48 186.328C183.563 186.603 183.55 186.899 183.444 187.166C183.181 187.886 182.907 188.617 182.622 189.348C182.566 189.487 182.493 189.617 182.405 189.736C182.282 189.956 182.094 190.131 181.867 190.238C181.639 190.344 181.383 190.376 181.137 190.331L179.572 190.079H179.412C179.295 190.047 179.172 190.054 179.059 190.097C178.946 190.14 178.85 190.217 178.784 190.319C178.566 190.57 178.327 190.81 178.087 191.05L177.812 191.336C177.732 191.412 177.675 191.509 177.646 191.616C177.618 191.722 177.62 191.836 177.653 191.941C177.79 192.455 177.915 192.981 178.019 193.495C178.131 193.821 178.111 194.178 177.961 194.488C177.811 194.799 177.544 195.037 177.219 195.151C176.499 195.493 175.768 195.814 175.037 196.122C174.761 196.26 174.444 196.295 174.144 196.219C173.844 196.144 173.581 195.963 173.404 195.711C173.175 195.402 172.947 195.094 172.729 194.774L172.593 194.591C172.158 193.974 172.158 193.974 171.45 194.02H170.308C170.221 194.016 170.134 194.037 170.059 194.082C169.984 194.127 169.924 194.192 169.885 194.271L169.646 194.648C169.497 194.911 169.337 195.174 169.177 195.425C169.031 195.651 168.863 195.861 168.674 196.053C168.469 196.245 168.201 196.355 167.921 196.362ZM162.986 189.337C163.366 189.334 163.732 189.482 164.002 189.748L164.197 189.931L165.237 190.902C165.396 191.043 165.52 191.22 165.598 191.419C165.675 191.617 165.704 191.832 165.682 192.044C165.682 192.215 165.682 192.398 165.682 192.569L165.431 194.135C165.431 194.135 165.431 194.135 165.499 194.237L165.682 194.351L167.967 195.208C168.092 195.048 168.217 194.9 168.32 194.74C168.424 194.579 168.629 194.249 168.766 193.997L169.006 193.609C169.145 193.372 169.341 193.175 169.577 193.035C169.813 192.895 170.079 192.818 170.354 192.81H171.496C171.923 192.71 172.372 192.76 172.767 192.951C173.161 193.142 173.479 193.463 173.666 193.86L173.803 194.054C174.021 194.351 174.226 194.648 174.454 194.922C174.683 195.197 174.592 195.071 174.74 195.003C175.46 194.705 176.168 194.386 176.876 194.043C176.95 194.011 177.019 193.968 177.082 193.917C177.096 193.83 177.096 193.742 177.082 193.654C176.979 193.152 176.865 192.649 176.739 192.158C176.653 191.865 176.648 191.554 176.724 191.259C176.801 190.963 176.956 190.694 177.173 190.479L177.458 190.182C177.68 189.969 177.889 189.744 178.087 189.508C178.289 189.244 178.566 189.046 178.88 188.938C179.196 188.831 179.536 188.818 179.858 188.903L181.513 189.177C181.513 189.177 181.513 189.177 181.628 189.096C181.673 189.036 181.712 188.971 181.742 188.903C182.016 188.183 182.291 187.463 182.553 186.732C182.553 186.663 182.553 186.618 182.473 186.516C182.3 186.381 182.116 186.258 181.925 186.149L181.377 185.83L180.942 185.567C180.718 185.438 180.531 185.254 180.396 185.032C180.262 184.81 180.187 184.558 180.177 184.299C180.177 183.819 180.177 183.34 180.177 182.872V182.472C180.17 182.274 180.208 182.077 180.289 181.897C180.371 181.717 180.493 181.557 180.645 181.432C180.856 181.241 181.077 181.062 181.308 180.895L181.708 180.61L182.222 180.244C182.462 180.039 182.462 180.016 182.348 179.765C182.039 179.068 181.731 178.382 181.399 177.697C181.32 177.537 181.285 177.503 181.069 177.549L180.188 177.754L179.344 177.937C179.083 178.003 178.808 177.999 178.55 177.925C178.29 177.85 178.056 177.709 177.87 177.514C177.562 177.206 177.253 176.909 176.933 176.623L176.613 176.315C176.459 176.169 176.34 175.991 176.263 175.793C176.185 175.596 176.153 175.384 176.168 175.172C176.168 174.944 176.168 174.716 176.259 174.499L176.339 174.031C176.397 173.755 176.439 173.477 176.465 173.196C176.465 173.036 176.465 173.014 176.397 173.002C175.608 172.694 174.808 172.42 174.009 172.134C173.952 172.134 173.918 172.134 173.849 172.214C173.78 172.294 173.575 172.614 173.438 172.82L173.083 173.356L172.718 173.928C172.611 174.091 172.468 174.228 172.3 174.327C172.131 174.426 171.942 174.484 171.747 174.499H171.119C170.742 174.499 170.377 174.499 169.977 174.499C169.671 174.528 169.363 174.471 169.089 174.334C168.813 174.197 168.583 173.984 168.424 173.722C168.217 173.425 168 173.128 167.772 172.831L167.418 172.352C167.418 172.282 167.349 172.271 167.27 172.352C166.394 172.607 165.563 172.991 164.802 173.493C164.848 173.639 164.882 173.788 164.905 173.939C164.962 174.224 165.031 174.521 165.099 174.818L165.259 175.527C165.302 175.727 165.297 175.934 165.245 176.133C165.193 176.331 165.097 176.514 164.962 176.669C164.483 177.194 163.991 177.697 163.477 178.189C163.228 178.391 162.918 178.503 162.598 178.508C162.379 178.496 162.162 178.47 161.947 178.428L161.33 178.325C161.055 178.325 160.781 178.222 160.508 178.2C160.233 178.176 160.313 178.2 160.233 178.382C160.154 178.565 160.005 178.908 159.913 179.182L159.502 180.393L159.388 180.712C159.506 180.867 159.659 180.992 159.833 181.078L161.136 181.958C161.307 182.068 161.448 182.218 161.548 182.395C161.647 182.572 161.702 182.771 161.707 182.974V183.591C161.707 183.922 161.707 184.265 161.707 184.596C161.744 184.937 161.682 185.281 161.528 185.587C161.374 185.893 161.135 186.149 160.838 186.321C160.416 186.595 160.016 186.881 159.616 187.189C159.566 187.226 159.52 187.268 159.479 187.315V187.474C159.765 188.16 160.051 188.845 160.37 189.52C160.484 189.771 160.541 189.817 160.553 189.817C160.678 189.839 160.806 189.839 160.93 189.817L161.387 189.714L162.529 189.463C162.675 189.399 162.828 189.357 162.986 189.337ZM170.868 189.337C169.741 189.332 168.64 188.994 167.706 188.366C166.77 187.737 166.042 186.846 165.612 185.804C165.183 184.763 165.07 183.617 165.29 182.512C165.51 181.407 166.052 180.391 166.847 179.593C167.895 178.535 169.31 177.921 170.799 177.879C171.555 177.871 172.305 178.012 173.006 178.295C173.707 178.578 174.344 178.997 174.882 179.528C175.419 180.06 175.847 180.692 176.138 181.389C176.429 182.087 176.579 182.835 176.579 183.591C176.597 184.318 176.469 185.04 176.205 185.717C175.94 186.394 175.543 187.01 175.037 187.532C174.503 188.104 173.858 188.56 173.141 188.873C172.423 189.186 171.65 189.347 170.868 189.348V189.337ZM170.799 179.057C169.614 179.098 168.489 179.593 167.658 180.439C167.232 180.863 166.893 181.366 166.662 181.92C166.431 182.475 166.311 183.07 166.31 183.671C166.31 184.883 166.791 186.045 167.648 186.902C168.506 187.759 169.667 188.241 170.879 188.241C171.507 188.245 172.13 188.122 172.707 187.876C173.285 187.63 173.806 187.268 174.237 186.812C175.042 185.975 175.485 184.855 175.471 183.694C175.471 183.088 175.35 182.489 175.117 181.93C174.883 181.371 174.54 180.864 174.109 180.439C173.677 180.014 173.165 179.678 172.603 179.452C172.04 179.227 171.439 179.116 170.833 179.125L170.799 179.057Z" fill="#DFE2EB"/>
<path d="M349.701 303.358C349.953 302.364 350.193 301.359 350.455 300.365C350.581 299.839 350.741 299.337 350.901 298.823C350.985 298.503 351.175 298.222 351.441 298.027C351.708 297.831 352.033 297.733 352.363 297.749C353.162 297.749 353.951 297.863 354.751 297.92C355.176 297.96 355.604 297.96 356.03 297.92C356.343 297.899 356.64 297.775 356.875 297.566C357.709 296.63 358.485 295.659 359.263 294.677C359.394 294.495 359.477 294.285 359.505 294.063C359.533 293.842 359.504 293.616 359.422 293.409C359.137 292.472 358.828 291.547 358.554 290.622C358.432 290.252 358.367 289.868 358.36 289.479C358.357 289.34 358.382 289.202 358.433 289.073C358.484 288.943 358.56 288.825 358.657 288.725C360.042 287.65 361.583 286.791 363.226 286.178C363.463 286.073 363.73 286.051 363.981 286.118C364.232 286.184 364.454 286.334 364.608 286.543C365.282 287.32 365.979 288.062 366.63 288.828C366.842 289.13 367.138 289.363 367.481 289.498C367.824 289.634 368.199 289.668 368.561 289.593C369.588 289.433 370.64 289.33 371.667 289.182C371.859 289.161 372.043 289.09 372.201 288.979C372.359 288.867 372.486 288.717 372.57 288.543C372.89 287.96 373.187 287.4 373.506 286.772C373.826 286.143 374.044 285.767 374.341 285.275C374.456 285.019 374.662 284.814 374.919 284.701C375.177 284.587 375.466 284.572 375.734 284.659C377.219 285.036 378.703 285.424 380.166 285.801C380.447 285.882 380.691 286.059 380.856 286.301C381.021 286.542 381.095 286.835 381.068 287.126C381.068 287.926 380.943 288.737 380.885 289.536C380.885 289.913 380.885 290.301 380.885 290.679C380.876 290.924 380.925 291.167 381.029 291.389C381.132 291.612 381.287 291.807 381.479 291.958C382.302 292.609 383.136 293.248 383.924 293.934C384.156 294.142 384.44 294.282 384.746 294.34C385.052 294.399 385.368 294.373 385.661 294.265C386.665 293.956 387.67 293.614 388.687 293.306C389.015 293.162 389.386 293.151 389.721 293.277C390.056 293.403 390.329 293.655 390.48 293.98C391.181 295.152 391.855 296.341 392.502 297.543C392.622 297.703 392.707 297.886 392.754 298.079C392.801 298.273 392.808 298.473 392.775 298.67C392.741 298.867 392.669 299.054 392.562 299.222C392.454 299.39 392.313 299.533 392.148 299.645C391.645 300.114 391.109 300.525 390.606 300.982C390.104 301.439 389.887 301.633 389.544 301.987C389.393 302.133 389.278 302.312 389.211 302.511C389.143 302.709 389.124 302.922 389.155 303.129C389.27 304.203 389.384 305.288 389.521 306.362C389.555 306.654 389.665 306.931 389.839 307.167C390.014 307.404 390.246 307.591 390.515 307.71L392.377 308.612C392.77 308.798 393.151 309.008 393.519 309.24C393.78 309.379 393.984 309.604 394.097 309.878C394.21 310.151 394.224 310.454 394.135 310.737C393.77 312.084 393.393 313.421 392.994 314.757C392.924 314.961 392.831 315.157 392.72 315.34C392.623 315.557 392.461 315.739 392.256 315.86C392.052 315.98 391.814 316.034 391.577 316.014L388.733 315.785H388.516C388.115 315.716 387.703 315.768 387.332 315.935C386.962 316.102 386.65 316.376 386.437 316.722C385.969 317.396 385.42 318.013 384.907 318.653C384.662 318.933 384.499 319.275 384.437 319.642C384.374 320.009 384.414 320.386 384.552 320.732C384.861 321.611 385.169 322.502 385.432 323.404C385.52 323.574 385.571 323.761 385.583 323.952C385.594 324.143 385.564 324.335 385.497 324.514C385.428 324.693 385.323 324.855 385.188 324.991C385.053 325.127 384.891 325.232 384.712 325.301C383.49 326.02 382.256 326.705 381 327.368C380.726 327.549 380.393 327.618 380.07 327.561C379.746 327.504 379.458 327.324 379.263 327.059C378.703 326.477 378.189 325.849 377.664 325.232C376.522 323.907 376.271 323.804 374.546 324.09L372.535 324.375C372.213 324.406 371.904 324.519 371.64 324.705C371.375 324.891 371.164 325.144 371.027 325.437C370.673 326.158 370.342 326.877 369.965 327.585C369.768 327.95 369.535 328.294 369.269 328.613C369.156 328.776 368.995 328.899 368.808 328.965C368.622 329.031 368.418 329.036 368.229 328.979L364.003 327.837C363.811 327.774 363.627 327.69 363.454 327.585C363.238 327.488 363.055 327.327 362.935 327.122C362.814 326.917 362.76 326.68 362.781 326.443L362.986 323.633C363.003 323.348 363.003 323.061 362.986 322.776C362.993 322.543 362.945 322.313 362.846 322.102C362.747 321.892 362.599 321.707 362.415 321.565C361.604 320.949 360.816 320.321 360.016 319.692C359.793 319.506 359.523 319.383 359.235 319.337C358.948 319.29 358.653 319.323 358.383 319.429C357.492 319.738 356.589 320.012 355.698 320.297C355.664 320.302 355.63 320.302 355.595 320.297C354.453 320.617 354.019 320.503 353.414 319.453C352.808 318.401 352.1 317.077 351.483 315.866C351.388 315.729 351.32 315.576 351.286 315.413C351.251 315.25 351.25 315.082 351.282 314.919C351.314 314.755 351.379 314.6 351.472 314.463C351.566 314.325 351.686 314.207 351.826 314.117C352.512 313.501 353.208 312.907 353.927 312.348C354.288 312.099 354.566 311.749 354.726 311.342C354.887 310.935 354.923 310.49 354.83 310.063C354.682 309.104 354.579 308.133 354.442 307.161C354.423 306.958 354.354 306.763 354.24 306.593C354.126 306.423 353.972 306.285 353.791 306.19L351.221 304.854C350.63 304.628 350.14 304.199 349.839 303.643L349.701 303.358ZM381.068 306.122C380.966 304.904 380.624 303.718 380.06 302.632C379.497 301.547 378.723 300.584 377.785 299.801C376.848 299.016 375.763 298.427 374.595 298.065C373.427 297.702 372.199 297.576 370.982 297.692C368.575 297.974 366.37 299.174 364.827 301.043C363.284 302.912 362.522 305.305 362.7 307.721C362.921 310.146 364.088 312.385 365.948 313.957C367.807 315.528 370.211 316.304 372.638 316.117C373.853 316.028 375.038 315.697 376.123 315.144C377.209 314.59 378.173 313.826 378.958 312.894C379.743 311.963 380.335 310.885 380.697 309.721C381.059 308.558 381.185 307.334 381.068 306.122Z" fill="white"/>
<path d="M368.378 329.653C368.235 329.65 368.094 329.631 367.956 329.596L366.813 329.277L363.741 328.42C363.532 328.354 363.332 328.262 363.147 328.145C362.814 328.001 362.534 327.756 362.348 327.444C362.162 327.133 362.077 326.771 362.108 326.409L362.199 325.187C362.199 324.662 362.279 324.124 362.313 323.599C362.33 323.333 362.33 323.066 362.313 322.8C362.323 322.651 362.296 322.502 362.234 322.367C362.172 322.231 362.077 322.113 361.959 322.023C361.197 321.459 360.466 320.888 359.765 320.309L359.56 320.15C359.406 320.014 359.216 319.927 359.013 319.899C358.81 319.87 358.603 319.902 358.418 319.99L356.51 320.607L355.722 320.858H355.607C355.348 320.984 355.065 321.055 354.776 321.065C354.488 321.075 354.201 321.025 353.932 320.917C353.664 320.81 353.422 320.647 353.221 320.44C353.019 320.233 352.864 319.987 352.763 319.715C352.01 318.414 351.336 317.111 350.822 316.106C350.573 315.716 350.484 315.246 350.573 314.793C350.663 314.34 350.924 313.938 351.302 313.673C352.101 312.953 352.775 312.371 353.426 311.868C353.7 311.687 353.912 311.428 354.037 311.125C354.161 310.821 354.191 310.487 354.123 310.166C354.031 309.56 353.952 308.966 353.871 308.362L353.735 307.219C353.726 307.106 353.687 306.996 353.623 306.902C353.559 306.808 353.471 306.731 353.369 306.682L352.341 306.134L350.81 305.345C350.098 305.059 349.513 304.523 349.166 303.837C349.155 303.781 349.155 303.723 349.166 303.666V303.312C349.16 303.248 349.16 303.183 349.166 303.118L349.394 302.204C349.565 301.508 349.737 300.811 349.919 300.114C350.102 299.417 350.216 299.063 350.388 298.549C350.512 298.115 350.777 297.735 351.14 297.468C351.505 297.201 351.947 297.063 352.398 297.075C352.935 297.075 353.471 297.075 353.997 297.178L354.808 297.247H355.139C355.424 297.275 355.711 297.275 355.996 297.247C356.167 297.234 356.332 297.18 356.476 297.087C357.344 296.093 358.155 295.077 358.84 294.22C358.912 294.109 358.954 293.981 358.964 293.851C358.974 293.719 358.951 293.586 358.897 293.466C358.783 293.066 358.646 292.655 358.521 292.255C358.395 291.855 358.189 291.205 358.029 290.679C357.894 290.262 357.821 289.827 357.813 289.388C357.81 289.163 357.856 288.939 357.947 288.732C358.037 288.526 358.171 288.34 358.338 288.189C359.754 287.083 361.33 286.197 363.01 285.561C363.356 285.421 363.74 285.396 364.102 285.49C364.465 285.585 364.787 285.794 365.02 286.087C365.248 286.361 365.5 286.636 365.74 286.898C366.185 287.401 366.619 287.903 367.042 288.417C367.191 288.644 367.404 288.82 367.656 288.922C367.906 289.024 368.182 289.047 368.447 288.988C369.117 288.882 369.791 288.79 370.469 288.715L371.611 288.577C371.712 288.56 371.806 288.519 371.888 288.457C371.969 288.396 372.035 288.315 372.079 288.223L372.628 287.195L373.176 286.167C373.393 285.755 373.621 285.344 373.861 284.944C374.046 284.588 374.348 284.306 374.716 284.146C375.084 283.986 375.496 283.958 375.883 284.065C377.642 284.5 379.058 284.876 380.338 285.207C380.738 285.322 381.088 285.57 381.327 285.911C381.566 286.253 381.681 286.665 381.651 287.08C381.642 287.63 381.604 288.18 381.537 288.726L381.469 289.537C381.469 289.902 381.469 290.268 381.469 290.679C381.461 290.838 381.491 290.996 381.557 291.141C381.622 291.287 381.721 291.413 381.846 291.513L382.383 291.935C383.034 292.449 383.685 292.963 384.313 293.5C384.467 293.635 384.654 293.727 384.854 293.765C385.055 293.803 385.263 293.787 385.455 293.717L386.929 293.249L388.482 292.758C388.934 292.582 389.434 292.579 389.888 292.75C390.341 292.921 390.715 293.253 390.938 293.683C391.639 294.871 392.313 296.07 392.96 297.281C393.26 297.715 393.38 298.247 393.295 298.767C393.21 299.287 392.925 299.753 392.503 300.068C392.206 300.343 391.898 300.605 391.578 300.868L390.95 301.405C390.596 301.725 390.253 302.044 389.921 302.387C389.835 302.468 389.769 302.567 389.729 302.679C389.688 302.79 389.676 302.91 389.693 303.026L389.762 303.723C389.853 304.558 389.945 305.402 390.059 306.248C390.08 306.448 390.153 306.638 390.271 306.801C390.389 306.964 390.548 307.092 390.732 307.173L391.498 307.538L392.64 308.064C393.033 308.264 393.414 308.485 393.782 308.727C394.144 308.932 394.426 309.254 394.582 309.639C394.738 310.025 394.758 310.453 394.639 310.852C394.274 312.199 393.897 313.535 393.497 314.884C393.423 315.108 393.324 315.322 393.2 315.524C393.052 315.852 392.805 316.127 392.494 316.309C392.183 316.491 391.823 316.571 391.464 316.54L388.62 316.323H388.368C388.072 316.264 387.765 316.299 387.491 316.425C387.216 316.55 386.987 316.758 386.838 317.02C386.495 317.511 386.118 317.957 385.695 318.414L385.238 318.973C385.054 319.177 384.933 319.43 384.889 319.702C384.844 319.973 384.879 320.251 384.987 320.504C385.295 321.406 385.592 322.297 385.866 323.211C385.974 323.442 386.034 323.692 386.043 323.947C386.051 324.202 386.008 324.455 385.917 324.693C385.825 324.931 385.686 325.148 385.509 325.331C385.331 325.514 385.119 325.659 384.884 325.758C383.742 326.432 382.531 327.106 381.161 327.837C380.774 328.074 380.314 328.164 379.867 328.088C379.419 328.013 379.014 327.777 378.727 327.426C378.271 326.934 377.836 326.432 377.414 325.918L377.117 325.576C376.111 324.433 376.043 324.365 374.513 324.57L372.502 324.867C372.274 324.886 372.054 324.964 371.865 325.094C371.677 325.225 371.526 325.402 371.428 325.609L371.074 326.317C370.846 326.809 370.606 327.3 370.355 327.769C370.144 328.175 369.891 328.558 369.601 328.91C369.47 329.122 369.292 329.301 369.079 329.43C368.867 329.558 368.627 329.635 368.378 329.653ZM358.909 318.756C359.406 318.76 359.887 318.938 360.268 319.258L360.474 319.418L362.655 321.12C362.908 321.314 363.111 321.563 363.25 321.849C363.389 322.134 363.458 322.448 363.455 322.765C363.472 323.069 363.472 323.374 363.455 323.679C363.455 324.216 363.375 324.741 363.341 325.278L363.238 326.489C363.226 326.62 363.256 326.753 363.327 326.864C363.397 326.976 363.503 327.061 363.626 327.106C363.762 327.192 363.908 327.261 364.061 327.312C365.077 327.609 366.094 327.883 367.122 328.168L368.264 328.488C368.39 328.488 368.527 328.545 368.71 328.317C368.955 328.024 369.169 327.706 369.349 327.369C369.589 326.912 369.817 326.432 370.046 325.963L370.4 325.244C370.579 324.868 370.852 324.544 371.191 324.304C371.532 324.064 371.928 323.916 372.342 323.873L374.353 323.576C376.283 323.313 376.728 323.484 377.985 324.97L378.282 325.312C378.704 325.815 379.116 326.306 379.561 326.774C379.616 326.86 379.688 326.933 379.772 326.989C379.857 327.045 379.952 327.083 380.052 327.1C380.152 327.117 380.255 327.113 380.353 327.088C380.452 327.064 380.543 327.019 380.623 326.957C381.972 326.249 383.183 325.576 384.302 324.913C384.919 324.547 384.976 324.387 384.77 323.668C384.507 322.777 384.21 321.897 383.902 321.018C383.733 320.58 383.684 320.105 383.763 319.643C383.842 319.18 384.043 318.748 384.348 318.39L384.816 317.819C385.181 317.385 385.535 316.963 385.866 316.494C386.142 316.066 386.54 315.728 387.007 315.525C387.475 315.322 387.992 315.262 388.494 315.352H388.665L391.51 315.581C391.639 315.594 391.77 315.564 391.881 315.496C391.993 315.428 392.079 315.325 392.126 315.203C392.215 315.054 392.291 314.897 392.354 314.735C392.732 313.399 393.108 312.062 393.497 310.726C393.556 310.562 393.551 310.381 393.483 310.221C393.415 310.06 393.29 309.931 393.132 309.858C392.786 309.638 392.428 309.439 392.057 309.263L390.996 308.738L390.207 308.362C389.856 308.198 389.552 307.946 389.324 307.633C389.097 307.319 388.952 306.953 388.905 306.568C388.791 305.723 388.699 304.866 388.608 304.009L388.528 303.324C388.494 303.038 388.525 302.749 388.62 302.477C388.714 302.206 388.871 301.96 389.077 301.759C389.431 301.393 389.796 301.051 390.218 300.719L390.87 300.16C391.167 299.92 391.464 299.668 391.738 299.406C392.286 298.892 392.332 298.64 391.989 297.989C391.338 296.847 390.664 295.613 389.978 294.437C389.933 294.332 389.868 294.238 389.784 294.161C389.701 294.083 389.603 294.023 389.497 293.985C389.39 293.946 389.276 293.93 389.163 293.937C389.048 293.944 388.938 293.974 388.837 294.026C388.323 294.174 387.82 294.345 387.306 294.506L385.821 294.985C385.435 295.122 385.02 295.154 384.618 295.075C384.216 294.997 383.843 294.812 383.537 294.539C382.919 294.014 382.28 293.512 381.64 293.009L381.104 292.575C380.843 292.371 380.635 292.108 380.493 291.808C380.353 291.509 380.284 291.181 380.293 290.851C380.293 290.462 380.293 290.062 380.293 289.708C380.293 289.354 380.293 289.148 380.372 288.862C380.372 288.348 380.475 287.834 380.475 287.321C380.497 287.158 380.46 286.991 380.373 286.852C380.285 286.712 380.152 286.607 379.995 286.555C378.728 286.19 377.322 285.812 375.575 285.413C375.426 285.364 375.264 285.373 375.122 285.439C374.98 285.505 374.868 285.622 374.81 285.767C374.57 286.155 374.364 286.544 374.147 286.909L373.599 287.937C373.416 288.28 373.233 288.634 373.039 288.977C372.911 289.227 372.725 289.443 372.497 289.606C372.268 289.769 372.003 289.874 371.725 289.913L370.583 290.051C369.92 290.142 369.258 290.222 368.607 290.325C368.145 290.414 367.667 290.368 367.23 290.194C366.792 290.02 366.414 289.725 366.14 289.342C365.729 288.84 365.294 288.36 364.86 287.869L364.129 287.047C364.049 286.927 363.93 286.84 363.791 286.803C363.652 286.764 363.504 286.778 363.375 286.841C361.799 287.435 360.324 288.267 359 289.308C358.962 289.403 358.938 289.503 358.932 289.605C358.938 289.929 358.995 290.248 359.103 290.553L359.583 292.118C359.72 292.518 359.846 292.929 359.971 293.341C360.079 293.638 360.112 293.957 360.067 294.27C360.021 294.584 359.898 294.88 359.708 295.134C359.023 296.002 358.201 297.03 357.31 298.046C356.976 298.361 356.545 298.554 356.088 298.595C355.73 298.629 355.371 298.629 355.014 298.595H354.706L353.871 298.526C353.369 298.526 352.855 298.435 352.352 298.424C352.147 298.415 351.946 298.477 351.781 298.599C351.617 298.722 351.5 298.898 351.45 299.097C351.29 299.6 351.13 300.103 351.005 300.605C350.822 301.302 350.651 301.987 350.479 302.684L350.273 303.507V303.666C350.535 304.055 350.91 304.355 351.348 304.523L352.889 305.334L353.928 305.871C354.19 306.007 354.414 306.206 354.582 306.449C354.749 306.691 354.854 306.972 354.888 307.265C354.888 307.641 354.98 308.007 355.037 308.407C355.106 309.001 355.185 309.549 355.277 310.177C355.373 310.702 355.317 311.244 355.114 311.739C354.912 312.233 354.572 312.658 354.134 312.964C353.506 313.456 352.844 314.016 352.067 314.713C351.621 315.112 351.587 315.283 351.849 315.786C352.341 316.768 352.992 318.071 353.757 319.339C354.225 320.138 354.34 320.183 355.299 319.921L356.156 319.647C356.785 319.441 357.424 319.247 358.041 319.03C358.313 318.891 358.607 318.798 358.909 318.756ZM371.863 316.746C369.955 316.747 368.088 316.194 366.489 315.153C364.891 314.111 363.63 312.626 362.861 310.881C362.093 309.134 361.849 307.202 362.16 305.32C362.472 303.438 363.324 301.686 364.614 300.281C365.904 298.875 367.575 297.875 369.423 297.404C371.272 296.932 373.217 297.009 375.023 297.625C376.829 298.241 378.416 299.369 379.592 300.871C380.766 302.374 381.479 304.188 381.64 306.088C381.782 307.323 381.674 308.575 381.323 309.768C380.971 310.961 380.384 312.071 379.596 313.033C378.762 314.095 377.717 314.973 376.528 315.612C375.339 316.251 374.031 316.636 372.685 316.746C372.41 316.746 372.136 316.746 371.863 316.746ZM371.794 298.252H371.028C369.604 298.397 368.237 298.893 367.05 299.694C365.863 300.496 364.893 301.579 364.226 302.846C363.56 304.113 363.217 305.526 363.228 306.958C363.239 308.39 363.605 309.797 364.292 311.053C364.979 312.31 365.966 313.377 367.166 314.159C368.365 314.942 369.74 315.416 371.166 315.538C372.593 315.661 374.028 315.428 375.344 314.862C376.659 314.295 377.814 313.412 378.704 312.291C379.396 311.447 379.911 310.474 380.221 309.429C380.531 308.383 380.629 307.286 380.509 306.202C380.342 304.015 379.347 301.974 377.728 300.493C376.109 299.011 373.987 298.203 371.794 298.229V298.252Z" fill="#DFE2EB"/>
<path d="M410.289 187.977C403.663 195.276 386.724 209.257 351.953 209.76L350.993 271.705C350.993 271.705 384.234 276.812 410.289 253.692V187.977Z" fill="white"/>
<path d="M358.966 272.722C356.271 272.747 353.577 272.594 350.901 272.265C350.765 272.246 350.641 272.176 350.552 272.071C350.464 271.965 350.417 271.831 350.422 271.694L351.381 209.748C351.384 209.601 351.444 209.461 351.548 209.356C351.653 209.252 351.793 209.192 351.941 209.188C385.695 208.698 402.726 195.481 409.865 187.6C409.941 187.513 410.042 187.45 410.154 187.422C410.267 187.393 410.385 187.4 410.493 187.44C410.601 187.483 410.693 187.557 410.758 187.653C410.823 187.748 410.858 187.861 410.859 187.977V253.692C410.86 253.772 410.843 253.851 410.809 253.924C410.775 253.998 410.726 254.063 410.664 254.114C392.457 270.278 370.537 272.722 358.966 272.722ZM351.563 271.203C355.767 271.694 385.912 274.401 409.717 253.429V189.462C401.972 197.457 384.872 209.748 352.512 210.354L351.563 271.203Z" fill="#021B51"/>
<path d="M359.572 264.417C359.424 264.418 359.282 264.361 359.175 264.258C359.069 264.156 359.007 264.017 359 263.87C358.997 263.719 359.052 263.573 359.155 263.462C359.257 263.351 359.398 263.284 359.549 263.275C370.852 263.063 381.962 260.31 392.058 255.222C395.843 253.318 399.351 250.909 402.487 248.06V205.67C402.487 205.52 402.547 205.374 402.654 205.267C402.761 205.16 402.907 205.1 403.058 205.1C403.209 205.1 403.355 205.16 403.462 205.267C403.569 205.374 403.629 205.52 403.629 205.67V248.3C403.629 248.372 403.615 248.444 403.588 248.511C403.56 248.577 403.52 248.637 403.469 248.689C403.32 248.837 388.996 263.424 359.594 264.417H359.572Z" fill="#DFE2EB"/>
<path d="M363.214 224.678C363.062 224.678 362.917 224.618 362.81 224.511C362.704 224.404 362.643 224.259 362.643 224.107C362.643 223.956 362.704 223.81 362.81 223.703C362.917 223.597 363.062 223.536 363.214 223.536C363.294 223.536 371.884 222.942 376.499 219.766C376.56 219.724 376.629 219.693 376.702 219.677C376.775 219.662 376.851 219.66 376.924 219.675C376.998 219.688 377.068 219.717 377.129 219.758C377.192 219.799 377.246 219.853 377.287 219.915C377.372 220.039 377.405 220.19 377.379 220.337C377.354 220.485 377.272 220.616 377.15 220.703C372.272 224.062 363.648 224.656 363.282 224.678H363.214Z" fill="#DFE2EB"/>
<path d="M363.214 219.344C363.066 219.342 362.924 219.281 362.818 219.178C362.712 219.073 362.649 218.933 362.643 218.784C362.64 218.709 362.653 218.633 362.679 218.563C362.706 218.493 362.747 218.428 362.799 218.374C362.851 218.319 362.914 218.276 362.984 218.246C363.053 218.217 363.128 218.202 363.203 218.202C363.283 218.202 371.325 217.927 376.465 214.421C376.527 214.379 376.597 214.349 376.671 214.335C376.744 214.32 376.82 214.32 376.894 214.333C376.967 214.348 377.038 214.377 377.101 214.418C377.163 214.459 377.217 214.513 377.259 214.575C377.301 214.638 377.33 214.707 377.345 214.781C377.36 214.854 377.361 214.93 377.346 215.004C377.332 215.078 377.303 215.147 377.262 215.21C377.22 215.273 377.167 215.327 377.105 215.369C371.69 219.07 363.568 219.333 363.226 219.344H363.214Z" fill="#DFE2EB"/>
<path d="M361.101 256.981C360.959 256.98 360.824 256.923 360.724 256.822C360.67 256.77 360.625 256.708 360.596 256.639C360.566 256.571 360.551 256.496 360.551 256.422C360.551 256.347 360.566 256.273 360.596 256.204C360.625 256.135 360.67 256.073 360.724 256.022C360.827 255.897 371.758 244.017 376.339 236.604C376.383 236.528 376.445 236.465 376.518 236.417C376.591 236.37 376.675 236.34 376.762 236.329C376.847 236.323 376.934 236.335 377.014 236.364C377.095 236.394 377.168 236.441 377.23 236.501L386.093 245.639C387.761 242.349 394.718 228.391 396.134 220.155L392.033 222.622C391.969 222.661 391.898 222.687 391.823 222.698C391.748 222.709 391.673 222.706 391.6 222.688C391.526 222.67 391.457 222.638 391.396 222.593C391.335 222.549 391.284 222.493 391.245 222.428C391.206 222.363 391.18 222.292 391.169 222.217C391.158 222.143 391.161 222.067 391.179 221.994C391.197 221.921 391.229 221.852 391.274 221.791C391.319 221.73 391.375 221.679 391.44 221.64L396.569 218.555C396.66 218.502 396.764 218.474 396.871 218.474C396.977 218.474 397.082 218.502 397.174 218.555C397.263 218.615 397.335 218.697 397.38 218.794C397.427 218.89 397.446 218.997 397.437 219.104C396.409 228.334 387.156 246.107 386.733 246.861C386.692 246.942 386.633 247.011 386.559 247.063C386.485 247.114 386.4 247.147 386.311 247.158C386.222 247.17 386.132 247.162 386.047 247.134C385.962 247.107 385.884 247.06 385.82 246.999L376.922 237.769C372.078 245.296 361.672 256.616 361.558 256.741C361.505 256.814 361.436 256.872 361.357 256.914C361.277 256.956 361.19 256.978 361.101 256.981Z" fill="#DFE2EB"/>
<path d="M398.545 224.678C398.424 224.68 398.305 224.643 398.207 224.573C398.109 224.503 398.035 224.404 397.996 224.29L396.294 219.275C396.259 219.203 396.24 219.123 396.239 219.042C396.236 218.962 396.251 218.881 396.283 218.807C396.314 218.733 396.361 218.665 396.42 218.611C396.479 218.555 396.548 218.514 396.625 218.488C396.702 218.461 396.783 218.452 396.863 218.46C396.944 218.467 397.021 218.492 397.091 218.532C397.161 218.572 397.222 218.626 397.27 218.691C397.318 218.756 397.351 218.831 397.368 218.91L399.081 223.924C399.129 224.068 399.119 224.225 399.052 224.362C398.986 224.498 398.87 224.604 398.727 224.655L398.545 224.678Z" fill="#DFE2EB"/>
<path d="M182.061 116.243C182.061 116.243 184.003 131.469 193.484 134.736V167.862C193.484 167.862 186.345 164.652 182.061 153.595V116.243Z" fill="white"/>
<path d="M193.484 168.398C193.404 168.414 193.323 168.414 193.244 168.398C192.947 168.261 185.842 164.972 181.536 153.812C181.52 153.744 181.52 153.674 181.536 153.606V116.243C181.536 116.098 181.591 115.959 181.692 115.855C181.791 115.75 181.928 115.688 182.072 115.683C182.145 115.675 182.218 115.681 182.287 115.701C182.357 115.722 182.422 115.756 182.478 115.802C182.534 115.847 182.581 115.904 182.615 115.968C182.65 116.031 182.671 116.101 182.678 116.173C182.678 116.322 184.677 131.092 193.712 134.198C193.823 134.239 193.921 134.311 193.99 134.406C194.06 134.503 194.098 134.618 194.1 134.736V167.861C194.1 167.957 194.076 168.051 194.031 168.135C193.985 168.218 193.918 168.29 193.838 168.341C193.73 168.402 193.605 168.422 193.484 168.398ZM182.632 153.458C185.933 161.899 190.959 165.668 192.913 166.857V135.124C186.996 132.84 184.037 126.214 182.632 121.417V153.458Z" fill="#021B51"/>
</g>
<defs>
<clipPath id="clip0_4_16">
<rect width="569" height="428" fill="white"/>
</clipPath>
</defs>
</svg>
